<svg xmlns="http://www.w3.org/2000/svg" viewBox="0 0 512 512"><path d="M74.461 472.724c-27.446 0-53.34-10.62-74.461-31.025l20.883-21.718c25.298 24.343 52.505 24.701 71.001 20.644 27.923-6.086 54.772-26.849 63.722-49.521 12.53-31.503.477-67.182-12.649-79.831-10.382-10.024-19.451-18.377-27.446-25.656-31.145-28.52-48.209-44.271-61.216-85.439-13.723-43.555-5.25-109.544 45.822-151.19 47.135-38.782 118.255-37.589 172.669 2.745l-17.899 24.224c-43.316-32.099-99.162-33.651-135.796-3.699-40.214 32.815-46.896 84.604-36.157 118.851 10.62 33.531 22.911 44.868 52.863 72.313l28.042 26.133c22.434 21.599 36.395 70.881 19.809 112.646-12.768 32.338-47.135 59.545-85.32 67.779-8.114 1.909-16.109 2.745-23.866 2.745z" fill="#7a7669"/><path d="M196.296 493.01l-28.639-9.427 69.211-204.768c18.496-51.073 24.343-60.977 36.873-62.29 28.042-2.983 33.293 40.572 43.078 119.567 4.773 38.424 13.365 108.47 24.462 122.909 7.04-5.131 20.405-26.014 23.269-44.987 2.983-19.689 5.37-38.782 7.518-55.727 6.086-49.044 10.501-84.485 25.536-102.503 2.983-3.461 7.518-7.876 13.842-14.081 21.957-21.241 67.779-65.511 70.165-104.532 2.029-33.531-16.229-73.029-55.13-83.888-44.987-12.53-88.423 4.892-96.776 9.785l-15.393-25.894c13.842-7.876 65.631-27.804 120.283-12.649 54.295 15.155 79.95 69.211 77.206 114.794-3.103 50.715-52.624 98.566-79.354 124.341-5.25 5.012-9.785 9.427-11.694 11.694-9.427 11.217-13.961 47.97-18.735 86.752l-7.637 56.562c-3.222 21.121-17.899 52.027-35.799 64.915-9.308 6.682-17.303 7.04-22.434 6.205-29.952-5.012-37.827-57.516-49.163-149.996-3.103-25.536-7.16-57.636-11.575-77.802-14.558 36.873-42.958 121.715-79.115 231.02z" fill="#637d96"/></svg>