<svg xmlns="http://www.w3.org/2000/svg" viewBox="0 0 512 106" fill="#7a7669"><g id="logo-susana-navarro"><path d="M134.33 90c2.31 1.86 6.14 4.76 9.96 4.76 1.63 0 2.79-.35 3.6-1.04.92-1.05.7-2.32-.12-2.9-3.01-2.55-12.05-6.03-12.05-11.94 0-7.77 8.92-14.37 14.02-16.57 2.78-1.16 5.45-1.63 7.42.11a10.8 10.8 0 0 1 2.9 4.75c.58 2.32-.81 4.52-1.63 5.68-1.5 1.97-3.13 4.87-3.94 6.26-.23.47-.58.81-1.27.12-1.04-1.05-1.74-2.78-.58-5.45 1.16-2.67 5.45-7.42 4.17-8.8-1.97-1.98-16 6.71-16.34 13.78-.12 3.71 7.19 6.73 10.31 8.93 2.2 1.5 1.86 4.17-.57 7.07-3.48 3.94-13.45 4.98-21.45-4.64-.58-.7-.34-1.16.12-1.27 1.5-.58 3.82-.12 5.45 1.16z"/><path d="M158.78 97.2c-4.05-.24-4.17-4.53-2.9-8.24 1.28-3.7 4.18-9.27 7.89-14.48.46-.58 1.04-.58 1.5 0 1.28 1.85.93 4.4-1.04 7.65a68.38 68.38 0 0 0-4.52 8.34c-1.16 2.78-1.04 4.87.23 4.98 2.2.12 5.33-3.82 8.46-8.69 3.6-5.8 5.22-9.73 7.07-12.17.58-.8.93-.93 1.4-.35.8 1.05 1.27 3.48 0 6.38-1.28 2.55-4.18 6.84-5.46 9.73-1.5 3.25-1.27 5.57.82 5.45 2.43-.11 5.33-3.82 7.53-7.76.23-.47.81-.58 1.04 0 .23.46.23 1.97-.46 3.59-1.62 3.13-5.22 6.03-8.58 6.03-3.7 0-5.21-2.32-4.75-5.57-1.97 2.44-4.98 5.33-8.23 5.1z"/><path d="M187.99 77.37c.23-2.2.81-3.24 2.08-4.4 1.28-1.16 2.55-1.4 3.13-.81.58.58.24 1.16-.46 2.55-.23.35-.35.7-.58 1.04-.35 5.22.7 9.62.46 13.56-.11 2.2-.46 4.64-2.55 5.91 3.83-1.39 6.26-4.87 7.65-7.88.24-.58.82-.46 1.05 0 .23.46.11 1.97-.81 3.7a12.17 12.17 0 0 1-10.2 6.27c-3.36.11-6.5-.7-8.46-4.29-1.4-2.55-1.16-6.26.7-7.88.69-.58 1.15-.35 1.15.58 0 .46 0 .93.12 1.39a73.87 73.87 0 0 0 6.72-9.74zm-6.03 12.87c.81 3.24 2.55 5.56 4.4 5.1 2.67-.81 1.74-9.74 1.51-14.26-1.62 2.9-3.7 6.03-5.9 9.16z"/><path d="M217.66 74.6c.46-.7.93-.82 1.39-.36.81 1.05 1.27 3.48 0 6.26-1.28 2.55-4.17 6.84-5.45 9.85-1.39 3.13-1.5 5.57.47 5.45 2.31-.11 5.44-3.94 7.53-7.88.23-.46.7-.58.93 0 .23.46.23 1.97-.47 3.48-1.5 3.13-5.1 6.26-8.23 6.02-3.13-.11-4.75-1.97-4.75-4.63-1.85 2.32-4.4 4.4-7.18 4.4-5.34 0-6.38-7.18-1.63-14.02 4.64-6.72 9.16-9.27 12.06-9.27 2.43 0 3.59 1.85 3.47 4.05a29.17 29.17 0 0 1 1.86-3.36zm-4.64 2.31c-1.85-.12-6.02 3.48-9.15 8.58-3.02 4.86-3.83 9.85-1.51 9.96 2.32 0 5.33-3.59 8.23-8.57 3.6-6.26 4.17-9.85 2.43-9.97z"/><path d="M238.4 74.24c1.86.24 3.71 3.02 2.2 6.03-1.15 2.55-4.05 6.72-5.32 9.62-1.51 3.25-1.16 5.91.92 5.8 2.32-.12 5.1-3.83 7.3-7.77.24-.46.7-.46.93 0 .35.58.23 1.97-.46 3.6-1.5 3.12-5.1 6.02-8.46 6.02-4.87 0-6.03-3.48-4.4-8.46 1.85-5.56 6.95-11.6 5.9-12.05-.58-.24-3.94 1.39-7.53 5.33-3.36 3.59-5.91 9.04-8.34 14.37-.24.46-.58.7-1.05.23-1.16-1.16-1.5-3.01-.58-5.8 1.16-3.59 5.57-11.47 9.16-16.68.35-.58.81-.58 1.16 0 .8 1.39.8 3.36.11 5.33 2.67-2.78 6.61-5.91 8.46-5.57z"/><path d="M263.67 74.6c.46-.7.93-.82 1.4-.36.8 1.05 1.27 3.48 0 6.26-1.28 2.55-4.18 6.84-5.46 9.85-1.39 3.13-1.5 5.57.47 5.45 2.32-.11 5.44-3.94 7.53-7.88.23-.46.7-.58.93 0 .23.46.23 1.97-.47 3.48-1.5 3.13-5.1 6.26-8.22 6.02-3.13-.11-4.76-1.97-4.76-4.63-1.85 2.32-4.4 4.4-7.18 4.4-5.33 0-6.38-7.18-1.62-14.02 4.63-6.72 9.15-9.27 12.05-9.27 2.43 0 3.6 1.85 3.48 4.05a29.17 29.17 0 0 1 1.85-3.36zm-4.52 2.31c-1.85-.12-6.03 3.48-9.16 8.58-3 4.86-3.82 9.85-1.5 9.96 2.32 0 5.33-3.59 8.23-8.57 3.59-6.26 4.05-9.85 2.43-9.97z"/><g fill="#637d96"><path d="M280.82 96.73c-.11.58-.58.7-.92.23-.93-1.04-1.4-3.24-.24-6.37 2.79-7.65 10.32-21.1 14.84-28.63.46-.81.93-.93 1.5-.46 2.1 1.5 2.56 3.12 1.98 7.07-.93 5.33-1.51 12.51-1.86 20.4 3.94-8.7 10.43-20.52 14.84-27.13.46-.7.92-.46 1.27.12.81 1.74.81 3.94-1.74 8.23-3.36 5.56-10.66 19.12-14.02 26.65-.23.58-.46.7-1.16.35-1.74-.93-2.55-2.32-2.78-5.9-.23-3.49 0-11.14.93-19.13-4.52 7.3-10.43 17.85-12.64 24.57z"/><path d="M325.8 74.6c.46-.7.92-.82 1.38-.36.81 1.05 1.28 3.48 0 6.26-1.27 2.55-4.17 6.84-5.44 9.85-1.4 3.13-1.51 5.57.46 5.45 2.32-.11 5.45-3.94 7.53-7.88.23-.46.7-.58.93 0 .23.46.23 1.97-.46 3.48-1.51 3.13-5.1 6.26-8.23 6.02-3.13-.11-4.75-1.97-4.75-4.63-1.86 2.32-4.4 4.4-7.19 4.4-5.33 0-6.37-7.18-1.62-14.02 4.63-6.72 9.15-9.27 12.05-9.27 2.43 0 3.6 1.85 3.48 4.05a13.3 13.3 0 0 1 1.85-3.36zm-4.64 2.31c-1.86-.12-6.03 3.48-9.16 8.58-3.01 4.86-3.82 9.85-1.5 9.96 2.31 0 5.32-3.59 8.22-8.57 3.6-6.26 4.17-9.85 2.44-9.97z"/><path d="M348.62 74.24c.58-.58.93-.46 1.05.24.11 1.15-.47 2.66-2.32 4.98-2.9 3.6-8.11 9.04-13.56 17.62-.23.46-.58.8-1.16.58-2.2-1.05-3.01-2.2-2.9-5.22.23-3.94 1.74-12.05 3.71-17.96.23-.58.7-.82 1.16-.47 1.85 1.62 2.2 3.71 1.4 7.19-1.05 4.4-2.21 7.53-3.02 13.67 4.17-6.72 11.7-16.69 15.64-20.63z"/><path d="M365.9 74.6c.46-.7.92-.82 1.38-.36.82 1.05 1.28 3.48 0 6.26-1.27 2.55-4.17 6.84-5.44 9.85-1.4 3.13-1.51 5.57.46 5.45 2.32-.11 5.45-3.94 7.53-7.88.24-.46.7-.58.93 0 .23.46.23 1.97-.46 3.48-1.5 3.13-5.1 6.26-8.23 6.02-3.13-.11-4.75-1.97-4.75-4.63-1.86 2.32-4.4 4.4-7.19 4.4-5.33 0-6.37-7.18-1.62-14.02 4.63-6.72 9.15-9.27 12.05-9.27 2.44 0 3.6 1.85 3.48 4.05a29.17 29.17 0 0 1 1.85-3.36zm-4.53 2.31c-1.85-.12-6.02 3.48-9.15 8.58-3.02 4.86-3.83 9.85-1.51 9.96 2.32 0 5.33-3.59 8.23-8.57 3.6-6.26 4.06-9.85 2.43-9.97z"/><path d="M383.74 75.87c.7-.47 1.16-.58 1.5-.12 1.05 1.16 2.44 3.71.82 5.56-2.55 2.9-5.33 6.5-6.26 9.4-.93 2.89-.23 5.1 1.4 5.2 2.2.12 4.98-3.35 6.83-7.53.23-.46.58-.46.81 0 .23.58.35 1.97-.23 3.48-1.28 3.25-4.64 5.68-7.65 5.56-4.17-.11-5.8-3.94-4.4-8.1 1.27-3.72 4.63-7.77 6.83-10.32a12.95 12.95 0 0 1-6.72 2.2c-2.2 3.94-7.65 12.05-8.8 17.15-.12.46-.47.81-.93.23-1.63-1.74-1.63-4.29-.12-7.18 1.28-2.55 5.1-7.77 7.3-10.78-3.24-2.09 1.74-8.81 3.83-8.81 1.74 0 1.27 3.25-.12 6.84a15.06 15.06 0 0 0 5.91-2.78z"/><path d="M404.6 75.87c.7-.47 1.16-.58 1.51-.12 1.04 1.16 2.43 3.71.81 5.56-2.55 2.9-5.33 6.5-6.26 9.4-.92 2.89-.23 5.1 1.4 5.2 2.2.12 4.98-3.35 6.83-7.53.23-.46.58-.46.81 0 .23.58.35 1.97-.23 3.48-1.27 3.25-4.63 5.68-7.65 5.56-4.17-.11-5.8-3.94-4.4-8.1 1.27-3.72 4.63-7.77 6.84-10.32a12.95 12.95 0 0 1-6.73 2.2c-2.2 3.94-7.65 12.05-8.8 17.15-.12.46-.47.81-.93.23-1.62-1.74-1.62-4.29-.12-7.18 1.28-2.55 5.1-7.77 7.3-10.78-3.24-2.09 1.74-8.81 3.83-8.81 1.74 0 1.27 3.25-.12 6.84a15.06 15.06 0 0 0 5.91-2.78z"/><path d="M425.35 85.02c-1.16 4.87-4.87 10.55-9.04 11.94-2.09.7-4.98.46-7.19-2.55-2.55-3.24-1.62-8.23.93-12.75 2.2-3.82 5.68-7.18 9.16-7.42 1.74-.11 2.78.35 3.94 1.97 1.27 1.74 3.01 2.2 2.66 6.26 0 .47 0 .81-.11 1.28.34 0 .7-.12 1.16-.12.34 0 .34.23.11.58-.46.47-1.04.7-1.62.81zm-4.87-1.5a7.5 7.5 0 0 1-2.66-4.99 18.67 18.67 0 0 0-4.4 5.33c-2.44 4.3-3.25 9.5-1.75 10.78 1.63 1.28 5.1-.7 7.88-5.9.82-1.63 1.51-3.14 1.97-4.53-.34-.11-.7-.35-1.04-.7zm1.97-4.99c-.23-1.85-1.39-1.5-1.74.12A4.94 4.94 0 0 0 422 82.7c.46-1.73.58-3.12.46-4.17z"/></g></g><g id="logo-clinica-dental"><path d="M157.85 14.1c1.05 2.31 1.28 3.35 1.4 5.1 0 1.73-.35 2.54-1.05 2.54h-.46c-.35.35-.93.12-.93-.35 0-.23 0-.23-.23-.23-.12 0-.35 0-.46-.11-.12 0-.12 0-.12.11 0 .12-.12.35-.23.58-.12.23-.23.23-.58.23-.23 0-.58 0-.81-.11-.47 0-.47 0-.58-.35-.12-.23-.23-.46-.23-.58a6.14 6.14 0 0 1-.47-1.85 5.05 5.05 0 0 0-1.5-2.09c-.58-.35-1.51-.93-2.09-1.04-.23 0-.7 0-1.16.11-.46.12-.93.12-1.16.12-.58-.12-1.16.23-1.74.81l-.8.81c-.82.58-3.6 4.52-4.41 6.5a73.53 73.53 0 0 0-1.62 4.63c-.58 2.55-.82 4.63-.58 4.98.11 0 .11 0 .23-.46l.11-.58v1.04c0 1.5.24 3.01.58 4.4.12.7.35 1.28.47 1.4 0 0 .23.34.34.8.35.82.58.93 1.74 1.05 1.63.35 3.83-.58 5.68-2.2l.7-.58-.58.58a8.86 8.86 0 0 1-5.8 2.78h-.8l.34.23c.46.35.7.47 1.5.47.82 0 1.63-.24 2.2-.58.24-.12.82-.58 1.28-.82.47-.34 1.28-.92 1.74-1.5.46-.47 1.16-.93 1.4-1.16.22-.12.34-.23.34-.35 0-.11.23-.58.7-1.04 1.62-2.32 2.54-3.83 3-5.91.47-1.74.47-1.74.82-1.74.58 0 1.4.46 1.85 1.04.58.7.7 1.05.7 1.86v1.39c0 1.16-.12 1.85-.58 3.13-1.5 3.82-4.17 7.07-7.07 8.46-.35.11-1.16.46-1.74.8a10.83 10.83 0 0 1-5.33 1.17c-1.27 0-1.39 0-2.2-.35-1.5-.58-2.2-1.04-2.9-2.09a3.5 3.5 0 0 0-.93-.92c-1.27-.93-2.2-2.44-3.13-4.76-.58-1.39-.7-2.2-.7-4.05 0-2.09.12-3.48.59-5.22.11-.8.35-1.74.35-2.2.23-1.16.46-2.55.8-3.7 1.28-4.64 4.3-9.4 7.08-11.37.46-.23.92-.8 1.39-1.04 1.39-1.16 3.6-2.32 4.63-2.55.7-.12 1.86 0 2.67.23.35.12.93.23 1.97.23.81 0 1.74 0 2.09.12a7.56 7.56 0 0 1 4.28 4.17zm-20.28 24.33c0-.11-.11-.81-.23-1.62-.23-2.2-.35-3.25-.46-3.25 0 0 0 .24-.12.47-.12 1.04-.23 1.62-.35 1.62-.11 0-.11.58.23 1.27.47 1.4 1.05 2.2.93 1.51zm-1.27-11.12v-.24c0-.11.11-.34.11-.46v-.23l-.11.23v.46zm.23-2.2v.8s.11-.58.35-1.15c.11-.7.23-1.28.23-1.51 0-.12 0-.47.11-.7.12-.46.12-.58-.11-.34 0 .11-.23.57-.47 1.04a3.38 3.38 0 0 0-.11 1.85zm1.27 17.5c-.11-.24-.34-.35-.46-.47-.23-.12-.23-.12 0 .12.23.46.81 1.04 1.4 1.39.45.34.92.46.8.11l.23.12c.35.23.82.46.82.35 0 0-.12-.24-.35-.35-.23-.23-.47-.35-.58-.35-.47.12-1.4-.46-1.86-.93zm5.91-29.9c-.46 0-2.54 1.85-3.59 3.24-.7.92-1.39 1.97-1.5 2.31 0 .12-.12.35-.12.47 0 .11.12-.12.46-.47.23-.46.7-.92.93-1.15.23-.24.81-.93 1.28-1.4.34-.57 1.15-1.39 1.73-1.97.47-.57.81-1.04.81-1.04zm5.57-1.98s-.58-.11-1.16-.11c-.81 0-1.16 0-1.74.11-1.16.47-.35.58 1.74.23.7 0 1.27-.11 1.16-.23.11.12.11 0 0 0zm6.14 1.74c0-.12-1.74-.93-1.74-.81-.11.11.12.46.58.7 1.16.23 1.28.23 1.16.11zm1.04 1.74c0-.12-.23-.58-.46-.7a6.52 6.52 0 0 0-1.5-.8c-.12.1.46.8 1.04 1.15.8.46.92.46.92.35z"/><path d="M186.95 42.95c0 .23-.12.58-.24.81 0 .12-.11.23-.23.23-.11 0-.23.24-.11.35 0 .12 0 .12-.12.35-.12.12-.12.23-.12.35 0 .11-.11.7-.34 1.27-.35 1.16-.58 1.5-1.16 1.4-.47 0-1.97-.24-4.64-.35-1.85-.12-3.7 0-14.72.58-3.47.23-3.47.23-3.94 0-.35-.12-.46-.24-.46-.47v-.46s.11-.35.11-.7c0-.58 0-.58-.34-.58-.24 0-.35 0-.35-.34 0-.12 0-.58.11-.82 0-.34.12-.8.12-1.16 0-.34 0-.69.12-.69 0 0 .11-.23.11-.46.35-1.86 1.74-8.7 1.86-9.4.23-.57.46-1.5.7-2.43.1-.46.22-.92.34-.92v.23c-.12.46-.46 2.32-.46 2.43 0 0 .11-.11.23-.58.11-.34.23-.92.46-1.39.7-2.08 1.28-5.1 1.16-5.68 0-.23 0-1.27.23-2.55.47-2.9.81-4.63 1.86-8.69.23-.81.46-1.74.34-1.85v-.93c.12-.46.12-.81.35-.93l.23-.23.12.23.23.23.35-.23c.23-.23.46-.35.81-.35.7 0 2.2 0 2.78.24.23.11.58.11.7.11.46 0 .58.47.58 1.63 0 1.04-.12 1.73-1.05 4.86-.23.7-.23.81-.11.93.11.12 0 1.04-.35 2.78a87.81 87.81 0 0 0-1.16 6.84c-.11.93-.35 2.09-.46 2.43-.12.7-.7 3.13-1.05 5.33-.23 1.51-.34 1.63-1.04 5.1l-.46 2.2h1.27c2.2.12 2.78.24 2.67.35 0 .12.11.12.93.12H174.43c.23 0 .35 0 .35.12 0 .11 1.27.23 2.43.11.81-.11.81-.23 0-.23-.23 0-.35 0-.35-.12 0-.11.7-.23 1.5-.46 1.05-.12 7.66-.12 8.12 0 .7-.12.81.46.47 1.4zm-20.52-16.57V26.6c.12 0 .12-.12 0-.23zm1.5 4.4c0-.23.24-1.27.36-2.2.23-1.04.46-2.32.57-3.01.35-1.4.82-4.87.82-5.57 0-.46.34-2.78.58-3.94 0-.23.11-.8.11-1.16.12-.92.23-2.2.47-3.36 0-.46.11-.8 0-.92h-.24c-.11 0-.11.11-.11.34 0 .24-.35 2.09-.58 2.67 0 0 0 .11 0 0 .11-.12.23.11.23.81 0 .7-.46 2.9-1.5 7.77a265.4 265.4 0 0 0-1.28 7.18c0 .35-.12 1.16-.35 1.97-.12.81-.23 1.74-.35 1.97 0 .35 0 .81-.11.93 0 .46.23-.35.58-1.97.46-.46.7-1.28.8-1.5zm.24-20.63s0 .12 0 0c.12.12.23 0 .23 0s-.11-.11-.23 0c0-.11 0-.11 0 0zm7.07 32.1c-.46 0-.93 0-1.04.12-.47.12.8.12 1.39 0 .34-.11.34-.11-.35-.11zm6.49.35H180.8c.12 0 .35.12.7.12.23 0 .35 0 .23-.12zm2.78 1.28h-.35l.24.11c.34.24.57.24.7 0 .1-.11-.13-.11-.59-.11zm.46.7h-.11.11c0 .11 0 0 0 0z"/><path d="M215 10.73c0 .58-.24 1.16-.47 1.28 0 0-.12.11-.12.23 0 .35-.7 1.39-1.16 1.85-.46.58-.8.58-2.31.47-1.05 0-1.74 0-1.63.11 0 .12-.92 3.48-1.39 4.4-.58 1.4-.58 1.63-1.16 3.37-.23.8-.58 1.97-.8 2.43-.12.46-.47 1.4-.59 2.09-.23.8-.46 1.74-.58 2.08a9 9 0 0 0-.23 1.86c0 .58-.11 1.27-.11 1.62 0 .35-.12.81-.24 1.28-.11.34-.23 1.04-.34 1.5a8.95 8.95 0 0 0-.24 1.74c0 .58-.11 1.62-.34 2.32-.12.81-.23 1.39-.23 1.5 0 .12.34.12.8.24.47 0 1.74.11 2.56.11l1.73.12.24.35c.34.46.46.8.23 1.16-.12.23-.12.46-.12.57 0 0-.11.24-.23.24a.25.25 0 0 0-.23.23s-.12.23-.35.46c-.11.12-.35.47-.35.58-.11.81-.8 1.74-1.39 1.86-.8.23-1.97.34-11.36.58h-2.78c-.46 0-.92-.12-1.04-.24-.23-.11-.46-.58-.46-.8 0-.24-.24-.12-.35.22-.12.35-.47.58-.47.24 0-.12 0-.24-.23-.24s-.23-.11-.11-.7c0-.34.11-.8.23-1.03 0-.24.23-.82.35-1.28.46-1.5.7-1.97 1.04-2.09.7-.23 1.62-.34 1.85-.34H195.64l.23-1.51c.46-2.2 1.27-6.03 1.5-6.72.12-.35.35-.7.47-.81.12-.23.12-.23.12 0 0 .11-.24.92-.47 1.74-.11.8-.35 1.85-.46 2.43 0 .46-.23 1.74-.47 2.78-.34 1.74-.34 2.2-.23 1.97l.23-.7c0-.34.12-.69.24-.57.11 0 .11-.12.7-3.13.22-1.16.46-2.67.69-3.36.11-.82.46-1.97.58-2.79.11-.8.46-2.08.7-3 .57-2.56.8-3.49.92-4.53s.58-3.6.7-3.94c0-.12.11 0 0 .35v.58s.23-.7.46-1.63c.23-.8.23-1.04.58-1.73.46-1.51.8-2.55.7-2.55-.12-.12-3.25 0-3.48.11l-.35.12h.46c.35 0 .47 0 .47.11 0 0-.47.12-.93.12h-.81l-.12-.35c0-.23-.11-.35-.46-.35-.47 0-.93-.11-.81-.34 0 0 .11-.12.34-.12.12 0 .24 0 .24-.11 0-1.74.23-2.79.58-3.25a.88.88 0 0 0 .23-.46c0-.24.11-.24 3.59-.47 3.94-.23 7.88-.34 9.85-.34 1.62 0 1.86.11 2.09.23.11.11.46.23.58.34.58.35.8.82.7 1.51zm-24.23 31.64c0-.11 0-.11-.12-.11-.11 0-.11.11-.11.23 0 .11 0 .11.11.11.12-.11.12-.23.12-.23zm.35 0c-.12 0-.23.12-.23.47-.12.46 0 1.62.11 1.5 0 0 .12-.46.35-.8.23-.94.23-1.17-.23-1.17zm.92.35c0-.12 0-.12-.11 0 0 .12-.12.23-.12.35 0 .11 0 .11.12 0 0-.12.11-.23.11-.35zm.12-.58c-.12-.12-.23 0-.12.12h.12c.12 0 .12 0 0-.12zm5.91-31.76c-.11 0-.23.58-.23 1.4v.69l.12-.35c.11-.11.11-.7.23-.92 0-.7 0-.82-.12-.82zm.81 18.08c.12-1.27.7-3.94 1.16-5.1l.12-.46v.81c-.12.47-.35 1.62-.58 2.78-.7 2.32-.81 2.79-.7 1.97zm4.75-17.84c-.23 0-1.27.11-2.31.11-1.28 0-1.74.12-1.86.23-.11.12-.11.35 0 .24.12 0 .81-.12 1.5-.12 2.67-.23 2.9-.23 3.02-.35.12-.11 0-.11-.35-.11zm.58 32.91v-.23s-.34-.12-.7-.12c-.69 0-.92 0-.92.35 0 .12.12.12.81.12.81.11.93.11.81-.12zm-1.39-1.04c-.11.35 0 .58.24.46.11 0 .57-.11.92-.11.81-.12.81-.24-.35-.35-.7-.12-.8-.12-.8 0zm6.03-38.83c.46-.11.93-.35 1.16-.46.11 0 .58-.12.81-.12.23 0 .46 0 .7-.11.34-.12.23.46-.12.58-.35.11-.58.8-.23.7.46-.12.58 0 .46 0-.11.1 0 .1 0 .22.12 0 .12.12.12.12s0 .23.11.46c.24.81 0 1.05-2.78 1.97-2.32.81-3.01 1.05-3.94 1.16-.23 0-.7.12-.81.12-.23 0 0-.12.23-.23.12 0 .23 0 .23-.12 0 0-.34 0-.7.12-.46.11-.8.23-.92.23-.23 0-.35-.7-.11-1.28a4.18 4.18 0 0 1 1.73-1.74c.81-.34 3.02-1.27 4.06-1.62zm-2.2 21.8c-.35 1.38-.58 2.66-.7 2.89 0 .11-.11.46-.23.7l-.12.34v-.58c0-1.04.93-5.1 1.4-5.9.23-.47.23.1-.35 2.54zm1.5-14.96v-.23c0-.12-.11-.12-.23-.12-.11 0-.23 0-.23.12 0 .11 0 .11.12.11 0 0 .11 0 .11.12l.12.12c.11 0 .11 0 .11-.12zm5.45-1.16c0-.23-.46-.12-.7 0-.23.35-.1.46.12.23.23-.11.35-.11.58-.23-.11.12 0 0 0 0z"/><path d="M247.8 10.5a7 7 0 0 1-.47 2.55c-.23.81-.58 2.43-.93 3.7-.35 1.28-.7 2.33-.7 2.44 0 0-.34.81-.57 1.62-.24.82-.7 2.2-.93 3.02-.35.8-.58 1.62-.58 1.62h.12c.11 0 .11 0 0 .35 0 .23 0 .81-.12 1.16-.12 1.62-.58 4.05-1.62 8.8-.35 1.4-.81 3.37-.93 4.3a46.41 46.41 0 0 1-1.74 6.83c-.23.47-.23.47-.7.47-.34 0-.57.11-.8.34-.35.35-.35.47.23.24.11 0 .23-.12.34 0 .12.11-.46.46-.7.46h-1.38c-.58 0-1.04 0-1.04-.12h1.62s-.12-.23-.35-.46c-.23-.23-.35-.23-.7-.23-.23 0-.46 0-.57-.12-.24-.23-.24-.23-.35 0 0 .23-.12.23-.23.23-.12 0-.24 0-.35-.11-.12 0-1.05-.93-1.05-1.16 0-.35-.57-1.5-.92-1.74a3.6 3.6 0 0 1-.47-.7c-.34-.7-1.73-4.86-2.2-6.72a26.1 26.1 0 0 0-1.85-5.1c-.7-1.39-.81-1.74-.81-1.16.11.47 0 .24-.47-.8a37.63 37.63 0 0 0-1.39-3.48c-.11-.24-.35-.82-.7-1.74-.1-.35-.23-.58-.23-.47-.11 0-.34 1.4-.8 3.94-.24 1.4-.82 4.06-1.63 6.96-.23.8-.35 1.5-.35 1.74 0 .34-.34 3.13-.8 5.1-.36 1.39-.82 3.47-.82 4.28-.12.82-.23 1.05-.58.93-.23 0-.35 0-.46.12a3.6 3.6 0 0 1-.7.46c-.46.23-.7.23-1.97.35h-1.74c-.34-.23-.46-.46-.34-.93.11-.35.11-.46 0-.46-.12-.12-.12-.23-.12-.7 0-.58 0-.58-.23-.7-.12-.1-.23-.22-.23-.34 0-.23.58-1.74.7-1.86 0 0 .1-.11.1-.46.24-.7.7-3.24.7-3.7 0-.47.23-2.1.93-5.92.12-.81.46-3.01.81-4.87.35-1.85.7-3.94.81-4.52.23-1.04 1.16-4.98 1.4-5.9 0-.24.34-1.17.57-1.98.81-3.13.93-3.47 1.16-4.17.12-.35.35-.81.47-1.04.11-.23.23-.58.23-.7 0 0 .11-.23.23-.23.35-.23 1.16-.35 1.27-.23 0 .11.24.11.58.11.24 0 .81 0 1.16.12.35 0 .81.12 1.05.12.7 0 .8.23 1.15 1.27.35 1.5.7 2.09 1.51 4.06 1.5 3.13 2.2 4.98 2.32 5.9 0 .47.23 1.17.35 1.51.11.35.23.82.23.82s-.23-.35-.35-.7c-.46-1.16-.46-.81 0 .46.58 1.51 1.04 2.44 1.16 2.32.12-.11.93 1.74 1.04 2.55a6 6 0 0 0 .81 2.09c.24.23.47.7.7 1.27.46 1.16.58 1.4.58 1.28 0-.12-.81-2.44-1.74-4.87-.81-2.32-1.5-3.82-1.39-3.94 0-.35 2.67 5.91 3.25 7.77.23.69.46 1.5.46 1.85 0 .35.23.93.46 1.5.23.47.35.93.35 1.05s0 .23.12.23c.11.12.23.12.23-.11.11-.47.11-1.4 0-1.51-.12-.12 0-.47.23-2.44.12-1.27.35-2.55.35-2.78 0-.23.11-.92.23-1.62.11-.7.46-2.09.7-3.13.23-1.04.69-2.9.92-3.94.35-1.04.7-2.43.81-3.01.12-.58.47-1.5.58-1.86.12-.46.35-1.39.58-2.2.23-.81.35-1.5.47-1.5 0-.12.11-.35.23-.59.11-.57.46-1.15.7-1.39 0-.11.1-.23 0-.46 0-.46.34-.7 1.27-.81.92 0 2.55.11 2.78.35 0 .11.23.11.35.11.11 0 .23 0 .34.12.47-.35.47-.23.35.81zm-29.1 36.28c0-.24 0-.35-.23-.35-.12 0-.23 0-.23.11v.35c0 .12 0 .12.23.12.23.11.23.11.23-.23zm6.03-34.31-.12-.23v.23c0 .23 0 .23-.23-.12-.12-.23-.12-.23-.12-.11v.35c0 .11.12.34.24.7.11.57.23.57.34 0 0-.36 0-.7-.11-.82zm-.35-2.2h.12c0-.12-.12-.12-.12 0-.12-.12-.12 0 0 0zm1.5.46s0-.35-.1-.35c0 0-.12 0-.12.12-.12.35 0 .35.23.23zm1.05 7.88c0-.46-.12-1.04-.35-1.5-.11-.47-.23-1.05-.35-1.28-.11-.81-.23-.7-.46.35 0 .46 0 .58.58 1.85.35.81.58 1.4.58 1.28.12 0 0-.35 0-.7zm1.97 6.15a7.65 7.65 0 0 0-.46-1.28c-.23-.46-.35-.58-.35-.12 0 .24 0 .12-.35-.46-.11-.35-.35-.7-.35-.7 0 .12.82 2.2 1.16 3.02.23.46.35.7.35.58s0-.12.12-.12c.23.23.23 0-.12-.92zm4.75 5.21c0-.23-.8-2.2-.92-2.55-.24-.35-.12-.23.34 1.4.35 1.15.58 1.61.58 1.15zm1.63 16.69c0-.12-.12-.35-.35-.7-.47-.7-.47-.57 0 .7 0 .35.35.23.35 0zm-.35-6.84v.23c0 .12 0 .12 0 0 .23 0 .11-.23 0-.23 0-.23 0-.23 0 0zm8.23-12.86c-.12.11-.35 1.04-.24 1.04 0 0 .12-.12.12-.35.12-.23.23-.46.12-.7.11-.1.11-.1 0 0z"/><path d="M270.86 10.73c0 .58-.24 1.16-.47 1.28 0 0-.11.11-.11.23 0 .35-.7 1.39-1.16 1.85-.47.58-.81.58-2.32.47-1.04 0-1.74 0-1.62.11 0 .12-.93 3.48-1.4 4.4-.57 1.4-.57 1.63-1.15 3.37-.23.8-.58 1.97-.81 2.43-.12.46-.47 1.4-.58 2.09-.24.8-.47 1.74-.58 2.08a9 9 0 0 0-.23 1.86c0 .58-.12 1.27-.12 1.62 0 .35-.12.81-.23 1.28-.12.34-.23 1.04-.35 1.5a8.95 8.95 0 0 0-.23 1.74c0 .58-.12 1.62-.35 2.32-.12.81-.23 1.39-.23 1.5 0 .12.35.12.81.24.46 0 1.74.11 2.55.11l1.74.12.23.35c.35.46.46.8.23 1.16-.11.23-.11.46-.11.57 0 0-.12.24-.24.24a.25.25 0 0 0-.23.23s-.11.23-.35.46c-.11.12-.34.47-.34.58-.12.81-.81 1.74-1.4 1.86-.8.23-1.96.34-11.35.58h-2.78c-.47 0-.93-.12-1.05-.24-.23-.11-.46-.58-.46-.8 0-.24-.23-.12-.35.22-.11.35-.46.58-.46.24 0-.12 0-.24-.23-.24-.24 0-.24-.11-.12-.7 0-.34.12-.8.23-1.03 0-.24.23-.82.35-1.28.46-1.5.7-1.97 1.04-2.09.7-.23 1.63-.34 1.86-.34h3.02l.22-1.51c.47-2.2 1.28-6.03 1.5-6.72.13-.35.36-.7.47-.81.12-.23.12-.23.12 0 0 .11-.23.92-.46 1.74-.12.8-.35 1.85-.47 2.43 0 .46-.23 1.74-.46 2.78-.35 1.74-.35 2.2-.23 1.97l.23-.7c0-.34.11-.69.23-.57.12 0 .12-.12.7-3.13.23-1.16.46-2.67.7-3.36.1-.82.45-1.97.57-2.79.12-.8.46-2.08.7-3 .58-2.56.8-3.49.92-4.53s.58-3.6.7-3.94c0-.12.11 0 0 .35v.58s.23-.7.46-1.63c.23-.8.23-1.04.58-1.73.46-1.51.81-2.55.7-2.55-.12 0-3.25 0-3.48.11l-.35.12h.47c.34 0 .46 0 .46.11 0 0-.46.12-.93.12h-.8l-.13-.35c0-.23-.11-.35-.46-.35-.46 0-.93-.11-.81-.34 0 0 .12-.12.35-.12.11 0 .23 0 .23-.11 0-1.74.23-2.79.58-3.25a.88.88 0 0 0 .23-.46c0-.24.12-.24 3.6-.47 3.93-.23 7.87-.34 9.84-.34 1.63 0 1.86.11 2.1.23.1.11.45.23.57.34.46.35.81.82.7 1.51zm-24.23 31.64c0-.11 0-.11-.11-.11-.12 0-.12.11-.12.23 0 .11 0 .11.12.11 0-.11.11-.23.11-.23zm.35 0c-.12 0-.23.12-.23.47-.12.46 0 1.62.11 1.5 0 0 .12-.46.35-.8.23-.94.12-1.17-.23-1.17zm.93.35c0-.12 0-.12-.12 0 0 .12-.11.23-.11.35 0 .11 0 .11.11 0 0-.12.12-.23.12-.35zm.11-.58c-.11-.12-.23 0-.11.12h.11v-.12zm5.91-31.76c-.11 0-.23.58-.23 1.4v.69l.12-.35c.11-.11.11-.7.23-.92 0-.7 0-.82-.12-.82zm.82 18.08c.11-1.27.7-3.94 1.16-5.1l.11-.46v.81a91.6 91.6 0 0 0-.58 2.78c-.7 2.32-.81 2.79-.7 1.97zm4.63-17.84c-.23 0-1.27.11-2.32.11-1.27 0-1.73.12-1.85.23-.12.12-.12.35 0 .24.12 0 .81-.12 1.5-.12 2.67-.23 2.9-.23 3.02-.35.23-.11.12-.11-.35-.11zm.7 32.91v-.23s-.35-.12-.7-.12c-.7 0-.93 0-.93.35 0 .12.12.12.82.12.7.11.8.11.8-.12zm-1.5-1.04c-.13.35 0 .58.22.46.12 0 .58-.11.93-.11.81-.12.81-.24-.35-.35-.58-.12-.7-.12-.8 0zm3.93-17.04c-.35 1.4-.58 2.67-.7 2.9 0 .11-.11.46-.23.7l-.11.34v-.58c0-1.04.93-5.1 1.39-5.9.23-.47.23.1-.35 2.54zm1.5-14.95v-.23c0-.12-.1-.12-.22-.12s-.24 0-.24.12c0 .11 0 .11.12.11s.12 0 .12.12l.11.12c.12 0 .12 0 .12-.12zm5.34-1.16c0-.23-.46-.12-.7 0-.23.35-.11.46.12.23.35-.11.46-.11.58-.23 0 .12 0 0 0 0z"/><path d="M296.35 14.1c1.05 2.31 1.28 3.35 1.4 5.1 0 1.73-.35 2.54-1.05 2.54h-.46c-.35.35-.93.12-.93-.35 0-.23 0-.23-.23-.23-.12 0-.35 0-.46-.11-.12 0-.12 0-.12.11 0 .12-.12.35-.23.58-.12.23-.23.23-.58.23-.23 0-.58 0-.81-.11-.47 0-.47 0-.58-.35a1.96 1.96 0 0 1-.23-.58 6.14 6.14 0 0 1-.47-1.85 5.05 5.05 0 0 0-3.6-3.13c-.22 0-.69 0-1.15.11-.46.12-.93.12-1.16.12-.58-.12-1.16.23-1.74.81l-.8.81c-.82.58-3.6 4.52-4.41 6.5a73.53 73.53 0 0 0-1.63 4.63c-.57 2.55-.8 4.63-.57 4.98.11 0 .11 0 .23-.46l.11-.58v1.04c0 1.5.23 3.01.58 4.4.12.7.35 1.28.47 1.4 0 0 .23.34.34.8.35.82.58.93 1.74 1.05 1.62.35 3.83-.58 5.68-2.2l.7-.58-.58.58a8.86 8.86 0 0 1-5.8 2.78h-.8l.34.23c.46.35.7.47 1.5.47.82 0 1.63-.24 2.2-.58.24-.12.82-.58 1.28-.82.47-.34 1.28-.92 1.74-1.5.46-.47 1.16-.93 1.4-1.16.22-.12.34-.23.34-.35 0-.11.23-.58.7-1.04 1.62-2.32 2.54-3.83 3-5.91.47-1.74.47-1.74.82-1.74.58 0 1.39.46 1.85 1.04.58.7.7 1.05.7 1.86v1.39c0 1.16-.12 1.85-.58 3.13-1.5 3.82-4.17 7.07-7.07 8.46-.35.11-1.16.46-1.74.8a10.83 10.83 0 0 1-5.33 1.17c-1.28 0-1.4 0-2.2-.35-1.5-.58-2.2-1.04-2.9-2.09a3.5 3.5 0 0 0-.93-.92c-1.27-.93-2.2-2.44-3.13-4.76-.58-1.39-.7-2.2-.7-4.05 0-2.09.12-3.48.59-5.22.11-.8.35-1.74.35-2.2.23-1.16.46-2.55.8-3.7 1.28-4.64 4.3-9.4 7.08-11.37.46-.23.92-.8 1.39-1.04 1.39-1.16 3.59-2.32 4.63-2.55.7-.12 1.86 0 2.67.23.35.12.93.23 1.97.23.81 0 1.74 0 2.09.12a7.91 7.91 0 0 1 4.28 4.17zm-20.28 24.33c0-.11-.11-.81-.23-1.62-.23-2.2-.35-3.25-.46-3.25 0 0 0 .24-.12.47-.12 1.04-.23 1.62-.35 1.62-.11 0-.11.58.23 1.27.47 1.4 1.05 2.2.93 1.51zm-1.27-11.12v-.24c0-.11.11-.34.11-.46v-.23l-.11.23v.46zm.11-2.2v.8s.12-.58.35-1.15c.12-.7.23-1.28.23-1.51 0-.12 0-.47.12-.7.11-.46.11-.58-.12-.34 0 .11-.23.57-.46 1.04-.12.81-.12 1.04-.12 1.85zm1.28 17.5c-.12-.24-.35-.35-.47-.47-.23-.12-.23-.12 0 .12.24.46.82 1.04 1.4 1.39.46.34.92.46.8.11l.24.12c.35.23.8.46.8.35 0 0-.1-.24-.34-.35-.23-.23-.46-.35-.58-.35-.35.12-1.39-.46-1.85-.93zm5.9-29.9c-.46 0-2.54 1.85-3.58 3.24-.7.92-1.4 1.97-1.51 2.31 0 .12-.12.35-.12.47 0 .11.12-.12.47-.47.23-.46.7-.92.92-1.15.24-.24.81-.93 1.28-1.4.35-.57 1.16-1.39 1.74-1.97.46-.57.92-1.04.8-1.04zm5.69-1.98s-.58-.11-1.16-.11c-.81 0-1.16 0-1.74.11-1.16.47-.35.58 1.74.23.58 0 1.16-.11 1.16-.23.11.12.11 0 0 0zm6.14 1.74c0-.12-1.74-.93-1.74-.81-.11.11.12.46.58.7 1.16.23 1.28.23 1.16.11zm1.04 1.74c0-.12-.23-.58-.46-.7a6.52 6.52 0 0 0-1.5-.8c-.12.1.46.8 1.04 1.15.8.46.92.46.92.35z"/><path d="M321.97 47.47c0 .81 0 .81-.23 1.04-.24.12-.7.12-.7 0 0-.11-.58-.57-.7-.57v.34c.12.47 0 .81-.11.47 0-.12-.12-.12-.46-.12-.47 0-.82-.23-.93-.58 0-.11-.12-.23-.35-.23-.35-.23-.58 0-.46.58 0 .46 0 .46-.23.46-.12 0-.24-.11-.35-.23-.12-.12-.23-.23-.35-.23-.23 0-1.04-1.28-1.04-1.74 0-.12 0-.7-.12-1.04-.35-1.74-.7-5.33-.81-7.54v-.7h-1.16c-3.48 0-8.7.47-8.92.7 0 0-.82 1.28-1.74 2.79a81.65 81.65 0 0 1-4.52 6.83c-.35.35-.81.47-1.4.47-.46 0-.57 0-.8-.35a1.43 1.43 0 0 1-.12-1.4c0-.22.12-.57.12-.8 0-.35.11-.7.34-1.16.12-.35.35-.7.35-.81 0-.12-.11-.24-.23-.35l-.35-.35-.46 1.04a5.72 5.72 0 0 0-.81 2.79c0 .58 0 .58-.12.34-.23-.34-.58-.92-.58-1.39 0-.46.93-2.32 2.32-4.63a35.6 35.6 0 0 0 1.97-3.6c.46-.92 1.16-2.31 1.5-2.9.35-.57.7-1.27.82-1.5.11-.23.35-.7.58-.93.23-.34.8-1.39 1.27-2.32a35.76 35.76 0 0 1 1.86-3.12 14.23 14.23 0 0 0 1.97-2.9c.23-.47.11-.7-.12-.23-.12.11-.23.11-.23.11-.23-.23.81-2.55 2.32-4.75.7-1.04 1.5-2.32 1.85-2.9.35-.58.93-1.39 1.28-1.74.34-.46.8-1.15 1.16-1.85.57-1.16 1.15-1.85 1.5-1.85.12 0 .23-.12.35-.24.23-.23.23-.23.7-.11.23 0 .69.11.92.11.23 0 .58 0 .81.12.35.12.47.12.58 0 0 0 .23-.12.47-.12.34 0 .46 0 .58.35.11.23.23.81.34 1.28.12.8.12 1.04.58 7.07.12 1.85.23 4.75.47 6.49.11 2.55.23 4.05.23 8.34 0 4.17 0 5.33.11 5.45 0 .11.12.7.24 1.27.11.58.11 1.28.23 1.63.11.23.23 1.5.35 2.78.11.58.23 2.08.23 2.43zM304.7 30.43c.11-.34.23-.58.23-.58s-.93 1.63-1.16 2.2c-.35 1.28-.46 1.51-.46 1.63.11.12.23 0 .58-.46.11-.24.34-.82.58-1.16.23-.35.34-.81.34-.93.12-.23 0-.23-.11 0-.35 0-.35 0 0-.7zm10.2 1.4c0-.58-.12-1.63-.12-2.44-.11-3.13-.81-9.5-.81-9.39-.12 0-.93 1.74-1.16 2.44-.11.34-.23.8-.35.8 0 .24 0 .24.12 0 .23-.34.23-.22.12.24-.24.7-.12.46.46-.46 1.16-1.86.58-.58-.93 2.31-.8 1.51-.93 1.74-2.78 5.1-.81 1.51-1.5 2.67-1.5 2.79h.23c.11 0 .8-.12 1.5-.12s2.09-.12 3.25-.23c1.04 0 2.08-.12 2.08-.12s0-.46-.11-.92zm.35-13.45v-.81s0-.12-.12-.12-.12 1.4 0 1.63c.12.11.23 0 .12-.7zm2.66-7.42c0-.23 0-.23-.46 0-.47.12-.35.24.11.24.24 0 .35 0 .35-.24zm1.4 17.16c0-.58-.12-1.86-.36-3.02-.23-1.97-.34-4.05-.58-8.92-.11-2.44-.11-2.78-.23-2.78-.11 0-.11.23-.23 2.08-.11 2.55 0 4.99.35 6.03.11.46.23 1.5.35 2.55.11.93.23 2.09.34 2.55a9 9 0 0 0 .24 1.85c0 .58 0 .82.11.82.12 0 .12-.47 0-1.16zm1.03 18.3c0-.34-.11-.69-.23-.57 0 .11.12 1.04.23 1.04v-.46z"/><path d="M368.8 31.48c-.24.8-.82 2.66-1.4 3.47-.23.35-.7.93-.93 1.28-.23.35-.8.93-.92 1.39a19.95 19.95 0 0 1-7.3 6.6c-1.4.7-3.71 1.74-5.1 2.2-.82.24-1.86.7-2.44.94-.81.34-1.39.58-2.2.7-1.04.22-1.4.22-3.25.1-1.97-.1-2.55 0-3.7.12-.12 0-.47 0-.7-.11-.46-.23-.81-.7-.81-1.16 0-.12 0-.23-.23-.35a3.5 3.5 0 0 1-.58-1.85c0-.35.11-1.28.23-1.97.11-.82.46-2.44.81-3.71.23-1.28.58-3.25.81-4.3.7-4.28 1.5-9.38 2.2-12.74.93-4.75 1.74-9.5 1.74-10.08 0-.12.12-.35.23-.47l.58-.58c.23-.23.58-.34 1.05-.58.46-.11.92-.23 1.04-.34.35-.12.81-.12 1.27 0 .47 0 .47 0 .7-.12.12 0 .46-.23.81-.35.58-.11.93-.23 2.32-.11 3.24 0 5.45.58 7.65 2.08 1.85 1.28 2.55 1.86 3.47 3.02a21.88 21.88 0 0 1 4.06 7.07c.46 1.15.46 1.39.46 2.43 0 .58 0 1.4-.11 1.74-.12.7 0 2.32.11 1.74 0-.12.12-.23.24-.23.11 0 .11 0 .11-.12 0 0 0-.12.12-.12.23-.11 0 2.78-.35 4.4zM340.96 42.6c.35-1.73.93-4.86.93-5.21 0-.58-.11-.47-.58.58-.11.46-.35.8-.35.7 0-.24-.11.1-.23.8-.11.7-.11 3.37 0 3.48 0 .23.12 0 .23-.35zm.58 4.4c-.58 0-.58 0-.58.24 0 .23.24.23.82.12.46-.12.34-.24-.24-.35zm3.6-25.03c0-.23 0-.23-.35.12-.23.35-.35.7-.46 1.74 0 .23-.12.58-.12.58s-.12.8-.23 1.74a25.52 25.52 0 0 1-.93 5.44c-.35 1.4-.7 3.36-.7 3.71 0 .12.12-.23.24-.7.11-.46.23-.92.35-1.04 0-.11.23-.7.34-1.27.12-.58.35-1.16.35-1.28.23-.46.81-2.78.81-3.94 0-.58.12-1.27.23-1.5 0-.24.12-.7.12-.81 0-.24 0-.24-.12 0-.23.57-.23.34 0-1.28.35-.7.47-1.39.47-1.5zm17.85 4.4c-.12-2.08-.35-2.77-1.63-4.98l-.34-.58.46.35c.58.58.46.23-.35-.8-.58-.82-.7-.82-1.85-1.52-2.44-1.15-5.1-1.97-7.19-1.97-.7 0-1.39 0-1.62.12-.35 0-.35.12-.35.35.12.35-.35 2.9-.93 5.44-.23 1.16-.34 1.63-1.73 8.35-.47 2.2-.93 4.17-.93 4.4a86.37 86.37 0 0 0-1.16 6.15c0 .11.35.11 1.62-.12 2.67-.58 4.06-.93 7.07-2.43.81-.35 1.86-.81 2.32-1.05 2.43-.92 4.17-3.13 5.8-7.3.69-1.27.8-2.2.8-4.4zM347 13.4c0-.23.12-.58 0-.58-.11-.12-.23.11-.35.8 0 .7.12.59.35-.22zm.12-.93s.11-.12.11-.35c0-.23-.11-.35-.23-.11-.11.11 0 .46.12.46zm10.78 28.51s-.35.12-.82.58c-.8.46-1.27.81-1.27.7 0 0 .23-.12.58-.35.93-.7 1.27-1.28.35-.7-.7.47-1.5.81-2.44 1.05-.58.11-1.04.34-1.04.34-.23.12-.12-.23.23-.46.12-.12.35-.23.23-.23-.11-.12-2.9 1.62-2.9 1.85 0 .23-.57.47-1.27.47-.93.11-2.08.46-2.08.7 0 .22 1.27 0 2.78-.36 2.43-.58 4.52-1.39 5.9-2.08.59-.47 1.75-1.4 1.75-1.5zm-7.77.7c1.04-.47 1.4-.47 1.4-.35.1.11.46 0 1.73-.58.35-.12 1.04-.46 1.62-.7 1.16-.58 2.2-1.16 2.32-1.5 0-.12.12-.23.12-.23h.11c0-.12-1.04.34-3.01 1.27a48.64 48.64 0 0 1-5.45 2.2c-.7.23-1.16.47-1.16.47 0 .11 1.28-.12 2.32-.58zm.81-31.3h1.5-2.08.58zm-.23 3.71c-.12 0-.23.12-.23.35 0 .23 0 .23.7.12.34 0 1.62-.12 2.9-.12h1.85c-.12 0-.58-.12-.82-.12a19.7 19.7 0 0 0-4.4-.23zm6.03.47h.11-.11c-.12 0-.12 0 0 0zm11.24 14.25c-.12.35-.35 1.04-.58 1.62-.35.82-.35 1.05-.46 1.97 0 .58-.12 1.16-.12 1.4 0 .34.93-1.63 1.04-2.2 0-.12.12-.82.24-1.4 0-.58.11-1.16.11-1.5.12-.82-.11-.7-.23.11z"/><path d="M402.87 13.74c-.24.58-.24.58 0 1.05.11.46.11.7-.12.7-.12 0-.23.1-.35.23-.11.11-.23.23-.35.23-.11 0-.23 0-.34.11-.12.12-.93 0-1.86 0-1.39 0-2.43 0-3.7.12-.93.11-2.44.23-3.25.35-1.86.11-6.38.7-7.3.8-2.2.47-3.71.82-3.83.93-.35.35-.93 3.13-.7 3.37.12 0 0 1.39-.57 3.47-.24.93-.35 1.74-.35 1.74s.7-.11 1.62-.23c1.74-.23 6.14-.7 8.11-.81.82 0 1.51-.12 1.74-.23a11.9 11.9 0 0 1 2.9-.12c.46.12.81.46 1.4 1.16.45.7.45 1.04.22 2.55-.11.7-.11.93 0 1.27 0 .12.12.47.12.58 0 .35-.58.82-1.04.82-.24 0-.58.11-.82.34-.58.35-.92.47-2.43.7-1.85.23-4.4.46-6.14.35-1.28 0-2.2 0-3.94.23-1.28.11-2.44.23-2.67.23-.35 0-.46 0-.46.35 0 .23-.12.58-.58 2.55-1.04 4.75-1.04 5.1-1.04 5.1s1.15-.24 2.55-.58c2.08-.47 3.7-.81 7.07-1.4.46 0 1.27-.11 1.85-.23.7-.11 1.27-.23 1.62-.34.23-.12.81-.35 1.28-.47.34 0 .92-.23 1.16-.23a5.92 5.92 0 0 1 2.9-.11c.57 0 1.04.23 1.15.23 0 .11.23.11.47.11.11 0 .23 0 .23.12 0 .11.11.35.23.58.23.35.23.35 0 .58-.12.11-.12.11 0 .35.35.23.46.23.46 0 .12-.12.12-.12.12.23 0 .23.11.58.11.8 0 .24 0 .36-.11.59-.23.11-.35.46-.46 1.04-.24 1.04-.47 1.28-1.63 1.74-.46.12-1.16.46-1.74.58-.58.23-1.15.35-1.97.46-.58 0-2.78.47-4.98.81-5.21 1.05-6.26 1.16-8.46 1.16h-2.09a12.21 12.21 0 0 1-3.01-.8c-.35-.12-.81-.36-1.16-.47-.23 0-.7-.23-.81-.47a4.62 4.62 0 0 0-.46-.34c-.12 0-.24-.12-.24-.35 0-.35-.11-.46-.34-.23-.12.11-.12.11-.35-.58-.12-.58-.23-3.48-.12-4.4 0-.47.12-.82.24-.82.11 0 .11-.11.23-.23.11-.35.46-2.32.8-4.29.24-1.27 0-.35.36-.92.11-.24.34-1.51.58-2.79.23-1.27.7-3.24.92-4.4.35-1.16.58-2.55.7-3.13.11-1.16.8-5.1 1.39-7.07.11-.81.46-2.09.7-2.9.34-1.74.46-2.08.46-1.39 0 .35 0 .47.23.35h.23s.23-.12.35-.35c.11-.35.11-.46 0-.46h-.23c-.12 0 0-.35.11-.58.81-.7 5.33-1.16 7.88-.81 1.74.23 2.09.23 2.55 0 .47-.12 1.05-.12 3.94-.12 1.97 0 4.3 0 5.34-.11 1.04-.12 2.43-.12 3.13-.12h1.15l.58.35.7.46c.12 0 .58.81.58 1.04.11.24-.23 1.16-.46 1.97zM374 43.64s0-.23-.12-.46l-.12-.34v.34c0 .12 0 .35.12.47 0 .11.12.11.12 0zm2.43-16.68v-.7.23a.35.35 0 0 0 0 .47l-.12.23zm.23 16.34s.23.11.35.11h.12c-.12 0-.24-.11-.35-.11-.12-.23-.23-.12-.12 0zm2.09-30.71c-.12-.12-.12-.24-.7 2.31-.58 2.67-.7 3.94-.58 4.18.12.23.23 0 .35-.93.12-.35.23-1.4.35-2.09.7-3.01.7-3.36.58-3.47zm.93 10.89c0-.35-.12.12-.58 1.74a35.72 35.72 0 0 1-.47 1.85l.23-.46c.24-.58.82-3.01.82-3.13zm-.82-11.82c.12 0 .24 0 .24-.12v-.11a.25.25 0 0 0-.24.23c-.11-.12 0 0 0 0zm2.09 31.64c1.74-.23 3.48-.58 5.8-1.28.69-.23 2.2-.58 3.47-.92 2.2-.58 3.13-.81 2.9-.93 0 0-.81.12-1.62.35-.81.11-2.32.46-3.36.7-2.2.34-2.9.57-2.9.69 0 .11-.93.35-2.44.58-.46 0-1.15.23-1.39.23-.23.12-.92.35-1.5.46-1.63.47-1.4.47 1.04.12zm1.74-32.45c-.81.11-1.4.23-1.5.23-.12.12.1.12 2.31-.12 1.04-.11 1.97-.23 1.97-.23.12-.11-1.4 0-2.78.12zm3.82 17.96c.24 0 .24 0 0 0-.23-.11-.46 0-.46 0-.12.12.12.12.46 0zm.7-.11h.11c0-.12-.11-.12-.11 0-.12 0-.12 0 0 0zm1.39-.12c.46 0 1.74-.12 2.9-.35 1.04-.11 1.97-.35 1.97-.35s-.58-.11-1.16-.11c-1.16 0-1.04 0-4.06.81h.35zm4.98 11.24c.12.23.12.23.35 0 .12 0 .12-.11 0-.23-.35 0-.46 0-.35.23zm.23.47s-.11 0 0 0c-.11.11-.11.23 0 .23v-.23c.12 0 .12 0 0 0zm.35.11h-.23l.23.23c.23.24.35.24.93 0 .46-.23.58-.46.12-.34h-.35s0-.12.11-.12c.12 0 .12 0 .12-.12 0 0 0-.11.12-.11.11 0 0 0 0-.12 0-.11-.47-.11-.7 0 0 0-.12.12-.12.23-.11.24-.11.35-.23.35zm7.19-25.5s-.12-.11-.35-.23c-.23-.11-.58-.11-1.39-.11-1.04.11-2.32.23-2.2.34h2.9c.8.12 1.04.12 1.04 0zm.11-1.39c0-.23 0-.23-.34-.23-.7 0-.81.23-.12.35.46.11.46.11.46-.12zm.12-2.78c-.23 0-.35 0-.23.12 0 0 .11.35.11.58.12.46.24.34.35-.35.12-.35.12-.35-.23-.35z"/><path d="M435.08 10.5a7 7 0 0 1-.46 2.55c-.23.81-.58 2.43-.93 3.7-.34 1.28-.7 2.33-.7 2.44 0 0-.34.81-.57 1.62-.23.82-.7 2.2-.93 3.02-.35.8-.58 1.62-.58 1.62h.12c.11 0 .11 0 0 .35 0 .23 0 .81-.12 1.16-.11 1.62-.58 4.05-1.62 8.8-.35 1.4-.81 3.37-.93 4.3a46.41 46.41 0 0 1-1.74 6.83c-.23.47-.23.47-.7.47-.34 0-.57.11-.8.34-.35.35-.35.47.23.24.12 0 .23-.12.35 0 .11.11-.47.46-.7.46h-1.39c-.58 0-1.04 0-1.04-.12h1.62s-.12-.23-.35-.46c-.23-.23-.34-.23-.7-.23-.22 0-.46 0-.57-.12-.23-.23-.23-.23-.35 0 0 .23-.12.23-.23.23-.12 0-.23 0-.35-.11-.12 0-1.04-.93-1.04-1.16 0-.35-.58-1.5-.93-1.74a3.6 3.6 0 0 1-.46-.7c-.35-.7-1.74-4.86-2.2-6.72a26.1 26.1 0 0 0-1.86-5.1c-.7-1.39-.81-1.74-.81-1.16.11.47 0 .24-.46-.8a37.63 37.63 0 0 0-1.4-3.48c-.11-.24-.34-.82-.7-1.74-.1-.35-.22-.58-.22-.47-.12 0-.35 1.4-.81 3.94-.24 1.4-.82 4.06-1.63 6.96-.23.8-.34 1.5-.34 1.74 0 .34-.35 3.13-.82 5.1-.34 1.39-.8 3.47-.8 4.28-.12.82-.24 1.05-.59.93-.23 0-.34 0-.46.12a3.6 3.6 0 0 1-.7.46c-.46.23-.7.23-1.97.35h-1.73c-.35-.23-.47-.46-.35-.93.11-.35.11-.46 0-.46-.12-.12-.12-.23-.12-.7 0-.58 0-.58-.23-.7-.12-.1-.23-.22-.23-.34 0-.23.58-1.74.7-1.86 0 0 .11-.11.11-.46.23-.7.7-3.24.7-3.7 0-.47.23-2.1.92-5.92.12-.81.47-3.01.81-4.87.35-1.85.7-3.94.82-4.52.23-1.04 1.15-4.98 1.39-5.9 0-.24.34-1.17.58-1.98.8-3.13.92-3.47 1.15-4.17.12-.35.35-.81.47-1.04.11-.23.23-.58.23-.7 0 0 .12-.23.23-.23.35-.23 1.16-.35 1.28-.23 0 .11.23.11.58.11.23 0 .8 0 1.16.12.34 0 .8.12 1.04.12.7 0 .81.23 1.16 1.27.34 1.5.7 2.09 1.5 4.06 1.51 3.13 2.2 4.98 2.32 5.9 0 .47.23 1.17.35 1.51.12.35.23.82.23.82s-.23-.35-.35-.7c-.46-1.16-.46-.81 0 .46.58 1.51 1.05 2.44 1.16 2.32.12-.11.93 1.74 1.05 2.55a6 6 0 0 0 .8 2.09c.24.23.47.7.7 1.27.47 1.16.58 1.4.58 1.28 0-.12-.8-2.44-1.74-4.87-.8-2.32-1.5-3.82-1.39-3.94 0-.35 2.67 5.91 3.25 7.77.23.69.46 1.5.46 1.85 0 .35.23.93.47 1.5.23.47.34.93.34 1.05s0 .23.12.23c.11.12.23.12.23-.11.12-.47.12-1.4 0-1.51-.12-.12 0-.47.23-2.44.12-1.27.35-2.55.35-2.78 0-.23.12-.92.23-1.62.12-.7.47-2.09.7-3.13.23-1.04.7-2.9.92-3.94.35-1.04.7-2.43.82-3.01.11-.58.46-1.5.58-1.86.11-.46.34-1.39.57-2.2.24-.81.35-1.5.47-1.5 0-.12.11-.35.23-.59.12-.57.46-1.15.7-1.39 0-.11.11-.23 0-.46 0-.46.34-.7 1.27-.81.93 0 2.55.11 2.78.35 0 .11.23.11.35.11.12 0 .23 0 .35.12.34-.35.34-.23.34.81zM406 46.78c0-.24 0-.35-.23-.35-.11 0-.23 0-.23.11v.35c0 .12 0 .12.23.12.23.11.23.11.23-.23zm6.03-34.31-.11-.23v.23c0 .23 0 .23-.24-.12-.11-.23-.11-.23-.11-.11v.35c0 .11.11.34.23.7.12.57.23.57.35 0-.12-.36-.12-.7-.12-.82zm-.46-2.2h.11c0-.12-.11-.12-.11 0-.12-.12-.12 0 0 0zm1.5.46s0-.35-.11-.35c0 0-.12 0-.12.12 0 .35.12.35.23.23zm1.05 7.88c0-.46-.12-1.04-.35-1.5-.12-.47-.23-1.05-.35-1.28-.11-.81-.23-.7-.46.35 0 .46 0 .58.58 1.85.35.81.58 1.4.58 1.28.11 0 .11-.35 0-.7zm1.97 6.15a7.65 7.65 0 0 0-.47-1.28c-.23-.46-.34-.58-.34-.12 0 .24 0 .12-.35-.46-.12-.35-.35-.7-.35-.7 0 .12.81 2.2 1.16 3.02.23.46.35.7.35.58s0-.12.11-.12c.24.23.24 0-.11-.92zm4.75 5.21c0-.23-.81-2.2-.93-2.55-.23-.35-.11-.23.35 1.4.46 1.15.58 1.61.58 1.15zm1.62 16.69c0-.12-.11-.35-.35-.7-.46-.7-.46-.57 0 .7 0 .35.35.23.35 0zm-.23-6.84v.23c0 .12 0 .12 0 0 .12 0 .12-.23 0-.23-.12-.23-.12-.23 0 0zm8.23-12.86c-.12.11-.35 1.04-.23 1.04 0 0 .11-.12.11-.35 0-.23.12-.46.12-.7.11-.1.11-.1 0 0z"/><path d="M467.19 11.31c-.23.7-.23 1.16 0 1.62.11.35 0 .93-.35.93-.11 0-.23.12-.46.7-.12.58-.23.7-.58.8-.23.12-.35.12-.47 0-.11-.1-1.39 0-3.36 0-3.59 0-5.56.24-5.68.36-.11.23-.7 2.43-.7 2.66.13.81 0 2.32-.8 5.8-.23 1.04-.7 3-.93 4.28-.81 3.83-1.16 5.1-1.74 7.54-.23 1.27-.7 2.78-.8 3.36a40.54 40.54 0 0 1-1.28 4.87c-.12.46-.35 1.16-.47 1.62-.23.81-.35 1.04-.7.93-.1 0-.22 0-.34.34-.35.7-.7 1.05-1.16 1.05-.23 0-.46.11-.46.23-.24.23-.93.23-1.74 0-.35-.12-.7-.35-.81-.46a2.1 2.1 0 0 1-.47-1.28s-.11-.35-.34-.46c-.24-.24-.47-.58-.47-.81-.11-.35-.11-.58 0-1.05.12-.35.12-.8.12-.93 0-.23.58-2.66.8-3.12.13-.12.24-.7.36-1.05.11-.46.34-1.16.46-1.62.81-2.2 1.85-7.3 1.97-8.7 0-1.5 1.04-6.14 2.67-12.05.11-.58.23-.92.23-1.04 0 0-.81-.11-1.62-.11-.82 0-1.86-.12-2.32-.12-.47 0-1.28 0-1.97-.12-1.97-.11-3.36-.23-3.6-.46 0 0-.34-.12-.8-.12-1.05 0-1.28 0-1.28-.46 0-.12 0-.23.11-.35.12 0 .12-.11.12-.46 0-.58.7-3.48 1.04-3.71.24-.23.47-.23.7 0 0 .12.23.12.35.12.34 0 .34-.35 0-.35-.12 0-.35 0-.47-.12-.23 0 2.44-.11 3.94-.11 2.9.11 8.58 0 9.62-.12.81-.12 2.2-.12 6.6-.12h5.46l.7.35c.34.23.8.47.8.7.23.46.23.46.12 1.04zm-26.54.12c0-.12 0-.12 0 0h-.23s0 .11.11.11c.12 0 .12 0 .12-.11zm3.48 28.04c0-.11 0-.34.11-.46 0-.23.12-.23.12 0 0 .12-.12.35-.23.46 0 .12 0 .12 0 0zm.23-.92c0-.12 0-.12 0 0 .11 0 .11.11 0 0 0 .23 0 .11 0 0zm6.6-27c0-.12-.23-.12-1.85-.24-1.04 0-1.97 0-2.09.12-.23 0-.23.11.12.11.11 0 .81 0 1.39.12 2.09 0 2.43 0 2.43-.12zm-2.08 18.88c-.12.12-.23.47-.35.82-.12.34-.23.8-.35.92-.11.23-.81 2.9-.81 3.36 0 .12 0 .12.12.12l.11-.12c0-.11 0-.11.12-.11.11 0 .11-.12 0-.12v-.11s.11-.12.11-.24c0-.11 0-.58.12-.92.23-.81.81-2.67.81-3.25.23-.46.23-.46.12-.35zm4.52-14.48c-.12 0-.35 0-.35.11 0 .12-.35 1.05-.58 2.2a38.47 38.47 0 0 1-.7 2.67c-.11.35-.23.81-.23.81v.23c-.11 0-.11.24 0 .24 0 0 .12-.24.23-.58.12-.35.24-.7.35-.82.12-.23.12-.23.12.82 0 .34-.58 3-1.62 7.41-.24.81-.24 1.05 0 1.16.11 0 .23.12.11.81 0 .93 0 .7.46-.8.12-.7.47-1.98.7-3.02.23-1.04.46-2.2.58-2.67.23-1.04.35-1.97.23-1.74-.11.12-.11.12-.11 0 0-.11.11-.8.11-1.39 0-.7.23-1.73.35-2.55.12-.8.23-1.73.35-2.08.23-.81.23-.81 0-.81zm-2.09 6.6c0 .12 0 .23 0 0 0 .12 0 0 0 0 0-.11 0 0 0 0zm13.56-10.2s-.81-.11-1.97-.11h-1.74c.12 0 .23.11.23.11l.24.24c.23.11.23.11-.35.11-.93 0-1.04.12 0 .23h2.32s-.12-.11-.24-.11h-.23s.35-.12.81-.23c.58-.12.93-.24.93-.24z"/><path d="M483.18 47.47c0 .81 0 .81-.23 1.04-.23.12-.7.12-.7 0 0-.11-.57-.57-.69-.57v.34c.12.47 0 .81-.12.47 0-.12-.11-.12-.46-.12-.46 0-.81-.23-.93-.58 0-.11-.11-.23-.34-.23-.35-.23-.58 0-.47.58 0 .46 0 .46-.23.46-.12 0-.23-.11-.35-.23-.11-.12-.23-.23-.34-.23-.24 0-1.05-1.28-1.05-1.74 0-.12 0-.7-.11-1.04-.35-1.74-.7-5.33-.81-7.54v-.7h-1.16c-3.48 0-8.7.47-8.93.7l-1.74 2.79A81.65 81.65 0 0 1 460 47.7c-.34.35-.8.47-1.39.47-.46 0-.58 0-.8-.35a1.43 1.43 0 0 1-.12-1.4c0-.22.11-.57.11-.8 0-.35.12-.7.35-1.16.11-.35.35-.7.35-.81 0-.12-.12-.24-.24-.35l-.34-.35-.47 1.04a5.72 5.72 0 0 0-.8 2.79c0 .58 0 .58-.12.34-.24-.34-.58-.92-.58-1.39 0-.46.92-2.32 2.31-4.63a35.6 35.6 0 0 0 1.98-3.6c.46-.92 1.15-2.31 1.5-2.9.35-.57.7-1.27.81-1.5.12-.23.35-.7.58-.93.23-.34.81-1.39 1.28-2.32a35.76 35.76 0 0 1 1.85-3.12 14.23 14.23 0 0 0 1.97-2.9c.23-.47.12-.7-.11-.23-.12.11-.24.11-.24.11-.23-.23.82-2.55 2.32-4.75.7-1.04 1.5-2.32 1.86-2.9.34-.58.92-1.39 1.27-1.74.35-.46.81-1.15 1.16-1.85.58-1.16 1.16-1.85 1.5-1.85.12 0 .24-.12.36-.24.23-.23.23-.23.69-.11.23 0 .7.11.93.11.23 0 .58 0 .8.12.36.12.47.12.59 0 0 0 .23-.12.46-.12.35 0 .47 0 .58.35.12.23.23.81.35 1.28.12.8.12 1.04.58 7.07.11 1.85.23 4.75.46 6.49.12 2.55.23 4.05.23 8.34 0 4.17 0 5.33.12 5.45 0 .11.12.7.23 1.27.12.58.12 1.28.23 1.63.12.23.24 1.5.35 2.78.12.58.23 2.08.23 2.43zm-17.15-17.04c.12-.34.23-.58.23-.58s-.93 1.63-1.16 2.2c-.34 1.28-.46 1.51-.46 1.63.12.12.23 0 .58-.46.11-.24.35-.82.58-1.16.23-.35.35-.81.35-.93.11-.23 0-.23-.12 0-.35 0-.35 0 0-.7zm10.2 1.4c0-.58-.12-1.63-.12-2.44-.11-3.13-.8-9.5-.8-9.39-.12 0-.94 1.74-1.17 2.44-.11.34-.23.8-.34.8 0 .24 0 .24.11 0 .23-.34.23-.22.12.24-.23.7-.12.46.46-.46 1.16-1.86.58-.58-.93 2.31-.8 1.51-.92 1.74-2.78 5.1-.8 1.51-1.5 2.67-1.5 2.79h.23c.11 0 .8-.12 1.5-.12s2.09-.12 3.25-.23c1.04 0 2.09-.12 2.09-.12s-.12-.46-.12-.92zm.35-13.45v-.81s0-.12-.12-.12c-.11 0-.11 1.4 0 1.63.12.11.23 0 .12-.7zm2.66-7.42c0-.23 0-.23-.46 0-.46.12-.35.24.11.24.24 0 .35 0 .35-.24zm1.4 17.16c0-.58-.12-1.86-.35-3.02-.24-1.97-.35-4.05-.58-8.92-.12-2.44-.12-2.78-.24-2.78-.11 0-.11.23-.23 2.08-.11 2.55 0 4.99.35 6.03.12.46.23 1.5.35 2.55.11.93.23 2.09.35 2.55a9 9 0 0 0 .23 1.85c0 .58 0 .82.11.82v-1.16zm1.04 18.3c0-.34-.12-.69-.24-.57 0 .11.12 1.04.24 1.04v-.46z"/><path d="M511.81 42.95c0 .23-.12.58-.23.81 0 .12-.12.23-.23.23-.12 0-.24.24-.12.35 0 .12 0 .12-.12.35-.11.12-.11.23-.11.35 0 .11-.12.7-.35 1.27-.35 1.16-.58 1.5-1.16 1.4-.46 0-1.97-.24-4.63-.35-1.86-.12-3.71 0-14.72.58-3.48.23-3.48.23-3.94 0-.35-.12-.47-.24-.47-.47v-.46s.12-.35.12-.7c0-.58 0-.58-.35-.58-.23 0-.35 0-.35-.34 0-.12 0-.58.12-.82 0-.34.12-.8.12-1.16 0-.34 0-.69.11-.69 0 0 .12-.23.12-.46.34-1.86 1.74-8.7 1.85-9.4.23-.57.46-1.5.7-2.43.11-.46.23-.92.34-.92.12 0 0 .11 0 .23-.11.46-.46 2.32-.46 2.43 0 0 .12-.11.23-.58.12-.34.23-.92.47-1.39.7-2.08 1.27-5.1 1.16-5.68 0-.23 0-1.27.23-2.55.46-2.9.8-4.63 1.85-8.69.23-.81.47-1.74.35-1.85v-.93c.12-.46.12-.81.35-.93l.23-.23.11.23.24.23.34-.23c.24-.23.47-.35.82-.35.7 0 2.2 0 2.78.24.23.11.58.11.7.11.46 0 .57.47.57 1.63 0 1.04-.11 1.73-1.04 4.86-.23.7-.23.81-.12.93.12.12 0 1.04-.34 2.78a87.81 87.81 0 0 0-1.16 6.84c-.12.93-.35 2.09-.47 2.43-.11.7-.7 3.13-1.04 5.33-.23 1.51-.35 1.63-1.04 5.1l-.47 2.2h1.28c2.2.12 2.78.24 2.66.35 0 .12.12.12.93.12H499.29c.23 0 .35 0 .35.12 0 .11 1.28.23 2.43.11.82-.11.82-.23 0-.23-.23 0-.34 0-.34-.12 0-.11.7-.23 1.5-.46 1.05-.12 7.65-.12 8.12 0 .7-.12.8.46.46 1.4zM491.3 26.38V26.6c.11 0 .11-.12 0-.23zm1.5 4.4c0-.23.23-1.27.35-2.2.23-1.04.46-2.32.58-3.01.35-1.4.81-4.87.81-5.57 0-.46.35-2.78.58-3.94 0-.23.12-.8.12-1.16.11-.92.23-2.2.46-3.36 0-.46.12-.8 0-.92h-.23c-.12 0-.12.11-.12.34 0 .24-.35 2.09-.58 2.67 0 0 0 .11 0 0 .12-.12.23.11.23.81 0 .7-.46 2.9-1.5 7.77-.47 2.31-1.04 5.79-1.28 7.18 0 .35-.11 1.16-.34 1.97-.12.81-.24 1.74-.35 1.97 0 .35 0 .81-.12.93 0 .46.23-.35.58-1.97.47-.46.7-1.28.81-1.5zm.23-20.63s0 .12 0 0c.12.12.24 0 .24 0s-.12-.11-.24 0c0-.11 0-.11 0 0zm7.07 32.1c-.46 0-.92 0-1.04.12-.46.12.81.12 1.4 0 .34-.11.34-.11-.36-.11zm6.5.35H505.66c.11 0 .35.12.7.12.22 0 .34 0 .22-.12zm2.78 1.28h-.35l.23.11c.35.24.58.24.7 0 .11-.11-.12-.11-.58-.11zm.46.7h-.12.12c0 .11 0 0 0 0z"/></g><g id="logo-icon"><path d="M16.69 101.36A23.53 23.53 0 0 1 0 94.41l4.64-4.87c5.68 5.45 11.7 5.57 15.87 4.64 6.26-1.4 12.17-6.03 14.26-11.01 2.78-7.07.12-14.95-2.78-17.85-2.32-2.2-4.29-4.06-6.14-5.68-6.96-6.37-10.78-9.85-13.68-19.12C9.16 30.78 11 16.06 22.37 6.67c10.55-8.69 26.42-8.34 38.6.58L56.9 12.7c-9.74-7.18-22.14-7.53-30.37-.81-8.92 7.3-10.43 18.9-8.11 26.54 2.32 7.53 5.1 10.08 11.82 16.11 1.85 1.62 3.82 3.6 6.26 5.8 4.98 4.86 8.11 15.87 4.4 25.15-2.9 7.18-10.54 13.32-19 15.18-1.74.46-3.48.7-5.22.7z"/><path fill="#637d96" d="m43.93 105.88-6.38-2.08c7.19-21.56 12.17-36.74 15.42-45.78 4.17-11.36 5.44-13.56 8.22-13.91 6.26-.7 7.42 9.04 9.62 26.77 1.05 8.58 3.02 24.23 5.45 27.47 1.62-1.16 4.52-5.8 5.22-10.08.7-4.4 1.16-8.7 1.62-12.4 1.39-10.9 2.32-18.9 5.68-22.84.7-.8 1.62-1.73 3.13-3.12 4.87-4.76 15.18-14.6 15.64-23.3.47-7.53-3.59-16.34-12.28-18.78-10.08-2.78-19.82 1.05-21.67 2.2l-3.48-5.79C73.25 2.4 84.72-2.02 97 1.34c12.17 3.36 17.85 15.42 17.27 25.62-.7 11.36-11.7 22.02-17.74 27.81-1.16 1.16-2.2 2.09-2.66 2.67-2.09 2.55-3.13 10.66-4.17 19.35-.47 3.83-1.05 8.12-1.74 12.64-.7 4.75-3.94 11.59-8 14.48-2.09 1.51-3.82 1.63-4.98 1.4-6.73-1.16-8.46-12.87-11.01-33.5-.7-5.68-1.63-12.86-2.55-17.38-3.13 8.1-9.4 27-17.5 51.45Z"/></g></svg>