<svg xmlns="http://www.w3.org/2000/svg" viewBox="0 0 512 154" fill="#7a7669"><path fill="#fff" d="M0 0h512v154H0z"/><g id="logo-susana-navarro"><path d="M148.5 109.7c2.05 1.63 5.43 4.2 8.8 4.2 1.44 0 2.46-.31 3.18-.93.82-.92.61-2.05-.1-2.56-2.67-2.25-10.65-5.32-10.65-10.54 0-6.87 7.88-12.7 12.39-14.65 2.46-1.02 4.81-1.43 6.55.1a9.53 9.53 0 0 1 2.56 4.2c.51 2.05-.72 4-1.43 5.02-1.33 1.74-2.77 4.3-3.48 5.53-.2.41-.52.72-1.13.1-.92-.92-1.54-2.45-.51-4.81 1.02-2.36 4.81-6.55 3.68-7.78-1.74-1.74-14.13 5.94-14.43 12.18-.1 3.28 6.34 5.94 9.1 7.89 1.95 1.33 1.65 3.68-.5 6.24-3.07 3.49-11.88 4.4-18.95-4.1-.5-.6-.3-1.02.1-1.12 1.34-.51 3.38-.1 4.82 1.03z"/><path d="M170.1 116.04c-3.58-.2-3.68-3.99-2.56-7.27 1.13-3.27 3.7-8.19 6.97-12.8.4-.5.92-.5 1.33 0 1.13 1.64.82 3.9-.92 6.76a60.42 60.42 0 0 0-4 7.38c-1.02 2.45-.92 4.3.2 4.4 1.95.1 4.72-3.38 7.48-7.68 3.18-5.12 4.61-8.6 6.25-10.75.51-.72.82-.82 1.23-.31.72.92 1.13 3.07 0 5.63-1.13 2.25-3.69 6.04-4.81 8.6-1.33 2.87-1.13 4.92.71 4.82 2.15-.1 4.71-3.38 6.66-6.86.2-.41.72-.52.92 0 .2.4.2 1.74-.4 3.17-1.44 2.76-4.62 5.32-7.59 5.32-3.27 0-4.6-2.04-4.2-4.91-1.74 2.15-4.4 4.71-7.27 4.5z"/><path d="M195.91 98.53c.2-1.94.72-2.86 1.84-3.89 1.13-1.02 2.26-1.23 2.77-.71.51.5.2 1.02-.41 2.25-.2.3-.3.61-.51.92-.31 4.6.61 8.5.4 11.98-.1 1.95-.4 4.1-2.25 5.22 3.38-1.22 5.53-4.3 6.76-6.96.2-.51.72-.4.92 0 .2.41.1 1.74-.71 3.28a10.75 10.75 0 0 1-9.02 5.53c-2.96.1-5.73-.62-7.47-3.8-1.23-2.24-1.02-5.52.61-6.95.62-.52 1.03-.31 1.03.5 0 .42 0 .83.1 1.24a65.27 65.27 0 0 0 5.94-8.6zm-5.33 11.37c.72 2.87 2.26 4.92 3.9 4.5 2.35-.71 1.53-8.6 1.33-12.59a96.8 96.8 0 0 1-5.23 8.1z"/><path d="M222.12 96.08c.41-.62.82-.72 1.23-.31.72.92 1.13 3.07 0 5.53-1.12 2.25-3.68 6.04-4.81 8.7-1.23 2.77-1.33 4.92.41 4.82 2.05-.1 4.81-3.49 6.66-6.97.2-.4.61-.5.81 0 .21.41.21 1.74-.4 3.07-1.34 2.77-4.51 5.53-7.28 5.33-2.76-.1-4.2-1.74-4.2-4.1-1.63 2.05-3.88 3.9-6.34 3.9-4.71 0-5.63-6.35-1.44-12.4 4.1-5.93 8.1-8.19 10.65-8.19 2.15 0 3.18 1.64 3.08 3.59a25.77 25.77 0 0 1 1.63-2.97zm-4.1 2.04c-1.63-.1-5.32 3.08-8.08 7.58-2.66 4.3-3.38 8.7-1.33 8.8 2.05 0 4.7-3.17 7.27-7.57 3.17-5.53 3.68-8.7 2.15-8.8z"/><path d="M240.45 95.77c1.64.2 3.28 2.66 1.95 5.32-1.02 2.26-3.58 5.94-4.71 8.5-1.33 2.87-1.03 5.23.82 5.12 2.05-.1 4.5-3.38 6.45-6.86.2-.4.61-.4.82 0 .3.51.2 1.74-.41 3.18-1.33 2.76-4.5 5.32-7.48 5.32-4.3 0-5.32-3.07-3.89-7.47 1.64-4.92 6.15-10.24 5.22-10.65-.5-.2-3.48 1.23-6.65 4.7-2.97 3.18-5.22 8-7.37 12.7-.2.41-.52.62-.93.21-1.02-1.02-1.33-2.66-.5-5.12 1.02-3.17 4.9-10.14 8.08-14.75.3-.5.72-.5 1.03 0 .71 1.23.71 2.97.1 4.71 2.35-2.45 5.84-5.22 7.47-4.91z"/><path d="M262.78 96.08c.4-.62.82-.72 1.23-.31.71.92 1.12 3.07 0 5.53-1.13 2.25-3.7 6.04-4.82 8.7-1.23 2.77-1.33 4.92.41 4.82 2.05-.1 4.82-3.49 6.66-6.97.2-.4.61-.5.82 0 .2.41.2 1.74-.41 3.07-1.33 2.77-4.5 5.53-7.27 5.33-2.77-.1-4.2-1.74-4.2-4.1-1.64 2.05-3.9 3.9-6.35 3.9-4.71 0-5.63-6.35-1.43-12.4 4.1-5.93 8.09-8.19 10.65-8.19 2.15 0 3.17 1.64 3.07 3.59a25.77 25.77 0 0 1 1.64-2.97zm-4 2.04c-1.64-.1-5.32 3.08-8.09 7.58-2.66 4.3-3.38 8.7-1.33 8.8 2.05 0 4.71-3.17 7.27-7.57 3.18-5.53 3.59-8.7 2.15-8.8z"/><g fill="#637d96"><path d="M277.93 115.64c-.1.5-.51.61-.82.2-.82-.92-1.23-2.87-.2-5.63 2.46-6.76 9.11-18.64 13.1-25.3.41-.71.82-.81 1.34-.4 1.84 1.33 2.25 2.76 1.74 6.24-.82 4.71-1.33 11.06-1.64 18.02 3.48-7.68 9.21-18.12 13.1-23.96.42-.61.83-.4 1.13.1.72 1.54.72 3.49-1.53 7.28a290.87 290.87 0 0 0-12.4 23.55c-.2.51-.4.61-1.02.3-1.53-.81-2.25-2.04-2.46-5.22-.2-3.07 0-9.83.82-16.9-3.99 6.46-9.21 15.78-11.16 21.72z"/><path d="M317.66 96.08c.41-.62.82-.72 1.23-.31.72.92 1.13 3.07 0 5.53-1.12 2.25-3.68 6.04-4.81 8.7-1.23 2.77-1.33 4.92.4 4.82 2.06-.1 4.82-3.49 6.66-6.97.21-.4.62-.5.82 0 .2.41.2 1.74-.4 3.07-1.34 2.77-4.51 5.53-7.28 5.33-2.76-.1-4.2-1.74-4.2-4.1-1.63 2.05-3.89 3.9-6.34 3.9-4.71 0-5.64-6.35-1.44-12.4 4.1-5.93 8.1-8.19 10.65-8.19 2.15 0 3.18 1.64 3.07 3.59a11.74 11.74 0 0 1 1.64-2.97zm-4.1 2.04c-1.63-.1-5.32 3.08-8.08 7.58-2.66 4.3-3.38 8.7-1.33 8.8 2.04 0 4.7-3.17 7.27-7.57 3.17-5.53 3.68-8.7 2.15-8.8z"/><path d="M337.84 95.77c.5-.51.82-.41.92.2.1 1.03-.41 2.36-2.05 4.4-2.56 3.18-7.17 8-11.98 15.57-.2.41-.51.72-1.03.51-1.94-.92-2.66-1.94-2.56-4.6.21-3.49 1.54-10.65 3.28-15.88.2-.5.62-.71 1.03-.4 1.63 1.43 1.94 3.27 1.22 6.34-.92 3.9-1.94 6.66-2.66 12.09 3.69-5.94 10.34-14.75 13.83-18.23z"/><path d="M353.1 96.08c.4-.62.81-.72 1.22-.31.72.92 1.13 3.07 0 5.53-1.12 2.25-3.68 6.04-4.81 8.7-1.23 2.77-1.33 4.92.4 4.82 2.06-.1 4.82-3.49 6.67-6.97.2-.4.61-.5.81 0 .2.41.2 1.74-.4 3.07-1.34 2.77-4.51 5.53-7.28 5.33-2.76-.1-4.2-1.74-4.2-4.1-1.63 2.05-3.89 3.9-6.34 3.9-4.71 0-5.63-6.35-1.44-12.4 4.1-5.93 8.1-8.19 10.65-8.19 2.15 0 3.18 1.64 3.08 3.59a25.77 25.77 0 0 1 1.63-2.97zm-4 2.04c-1.64-.1-5.32 3.08-8.09 7.58-2.66 4.3-3.38 8.7-1.33 8.8 2.05 0 4.71-3.17 7.27-7.57 3.17-5.53 3.58-8.7 2.15-8.8z"/><path d="M368.86 97.2c.62-.4 1.03-.5 1.33-.1.93 1.02 2.15 3.28.72 4.92-2.25 2.56-4.7 5.73-5.53 8.3-.82 2.55-.2 4.5 1.23 4.6 1.95.1 4.4-2.97 6.04-6.66.2-.4.51-.4.72 0 .2.51.3 1.74-.2 3.07-1.13 2.87-4.1 5.02-6.76 4.92-3.7-.1-5.12-3.48-3.9-7.17 1.13-3.28 4.1-6.86 6.05-9.11a11.44 11.44 0 0 1-5.94 1.94c-1.95 3.49-6.76 10.65-7.79 15.16-.1.4-.4.72-.81.2-1.44-1.53-1.44-3.79-.1-6.35 1.12-2.25 4.5-6.86 6.44-9.52-2.86-1.84 1.54-7.78 3.38-7.78 1.54 0 1.13 2.87-.1 6.04a13.3 13.3 0 0 0 5.22-2.46z"/><path d="M387.3 97.2c.61-.4 1.02-.5 1.33-.1.92 1.02 2.15 3.28.71 4.92-2.25 2.56-4.7 5.73-5.53 8.3-.82 2.55-.2 4.5 1.23 4.6 1.95.1 4.4-2.97 6.04-6.66.2-.4.52-.4.72 0 .2.51.3 1.74-.2 3.07-1.13 2.87-4.1 5.02-6.76 4.92-3.69-.1-5.12-3.48-3.9-7.17 1.13-3.28 4.1-6.86 6.05-9.11a11.44 11.44 0 0 1-5.94 1.94c-1.95 3.49-6.76 10.65-7.78 15.16-.1.4-.41.72-.82.2-1.44-1.53-1.44-3.79-.1-6.35 1.12-2.25 4.5-6.86 6.45-9.52-2.87-1.84 1.53-7.78 3.38-7.78 1.53 0 1.12 2.87-.1 6.04a13.3 13.3 0 0 0 5.22-2.46z"/><path d="M405.62 105.3c-1.02 4.3-4.3 9.31-7.98 10.54-1.85.61-4.4.41-6.35-2.25-2.25-2.87-1.43-7.27.82-11.27 1.94-3.38 5.02-6.35 8.09-6.55 1.53-.1 2.46.3 3.48 1.74 1.13 1.54 2.66 1.95 2.35 5.53 0 .41 0 .72-.1 1.13.3 0 .62-.1 1.03-.1.3 0 .3.2.1.5-.41.42-.92.62-1.44.72zm-4.3-1.34a6.63 6.63 0 0 1-2.35-4.4 16.5 16.5 0 0 0-3.9 4.7c-2.14 3.8-2.86 8.4-1.53 9.53 1.44 1.13 4.5-.61 6.96-5.22a31.62 31.62 0 0 0 1.75-4c-.31-.1-.62-.3-.93-.6zm1.74-4.4c-.2-1.64-1.22-1.33-1.53.1-.2 1.33.3 2.77 1.13 3.58.4-1.53.5-2.76.4-3.68z"/></g></g><g id="logo-clinica-dental"><path d="M169.29 42.62a11.07 11.07 0 0 1 1.22 4.51c0 1.54-.3 2.25-.92 2.25h-.4c-.31.31-.83.1-.83-.3 0-.2 0-.2-.2-.2-.1 0-.3 0-.41-.11-.1 0-.1 0-.1.1s-.1.3-.2.51c-.11.2-.21.2-.52.2-.2 0-.51 0-.72-.1-.4 0-.4 0-.5-.3-.11-.2-.21-.41-.21-.51-.1-.1-.41-1.23-.41-1.64a4.46 4.46 0 0 0-1.33-1.85c-.52-.3-1.34-.82-1.85-.92-.2 0-.61 0-1.02.1-.41.1-.82.1-1.03.1-.5-.1-1.02.21-1.53.72l-.72.72c-.71.51-3.17 4-3.89 5.74a64.97 64.97 0 0 0-1.43 4.1c-.51 2.24-.72 4.09-.51 4.4.1 0 .1 0 .2-.42l.1-.5v.91c0 1.34.2 2.67.51 3.9.1.61.31 1.12.41 1.22 0 0 .2.31.31.72.3.72.51.82 1.54.92 1.43.31 3.38-.5 5.01-1.94l.62-.51-.51.5a7.83 7.83 0 0 1-5.12 2.46h-.72l.3.21c.42.3.62.4 1.34.4.72 0 1.43-.2 1.94-.5.2-.1.72-.51 1.13-.72.41-.3 1.13-.82 1.54-1.33.4-.41 1.02-.82 1.23-1.02.2-.1.3-.2.3-.31 0-.1.2-.51.62-.92 1.43-2.05 2.25-3.38 2.66-5.23.4-1.53.4-1.53.72-1.53.5 0 1.23.4 1.63.92.52.61.62.92.62 1.64v1.23c0 1.02-.1 1.64-.51 2.76-1.33 3.38-3.69 6.25-6.25 7.48-.3.1-1.02.4-1.54.71a9.57 9.57 0 0 1-4.7 1.03c-1.13 0-1.23 0-1.95-.3-1.33-.52-1.95-.93-2.56-1.85-.2-.31-.62-.72-.82-.82-1.13-.82-1.95-2.15-2.77-4.2a7.76 7.76 0 0 1-.6-3.58c0-1.85.1-3.08.5-4.61.1-.72.31-1.54.31-1.95.2-1.02.4-2.25.72-3.27 1.12-4.1 3.79-8.3 6.24-10.04.41-.2.82-.72 1.23-.92a12.75 12.75 0 0 1 4.1-2.25c.61-.1 1.64 0 2.35.2.31.1.82.2 1.74.2.72 0 1.54 0 1.85.1a6.68 6.68 0 0 1 3.79 3.7zm-17.92 21.5c0-.1-.1-.7-.2-1.43-.21-1.94-.32-2.86-.42-2.86 0 0 0 .2-.1.4-.1.93-.2 1.44-.3 1.44-.11 0-.11.51.2 1.13.4 1.23.92 1.94.82 1.33zm-1.13-9.82v-.2c0-.1.1-.31.1-.42v-.2l-.1.2v.41zm.2-1.95v.72s.1-.51.31-1.03c.1-.6.2-1.12.2-1.33 0-.1 0-.4.1-.61.11-.41.11-.51-.1-.3 0 .1-.2.5-.4.91-.2.72-.2.93-.1 1.64zm1.13 15.46c-.1-.2-.3-.3-.4-.4-.21-.1-.21-.1 0 .1.2.4.7.92 1.22 1.23.4.3.82.4.72.1l.2.1c.3.2.72.41.72.3 0 0-.1-.2-.3-.3-.21-.2-.42-.3-.52-.3-.41.1-1.23-.42-1.64-.83zm5.22-26.41c-.4 0-2.25 1.63-3.17 2.86-.62.82-1.23 1.74-1.33 2.05 0 .1-.1.3-.1.41 0 .1.1-.1.4-.4.2-.42.62-.83.82-1.03.2-.2.72-.82 1.13-1.23.3-.51 1.02-1.23 1.54-1.74l.71-.92zm4.92-1.75s-.51-.1-1.03-.1c-.71 0-1.02 0-1.53.1-1.03.41-.3.52 1.53.2.62 0 1.13-.1 1.03-.2.1.1.1 0 0 0zm5.43 1.54c0-.1-1.54-.82-1.54-.72-.1.1.1.41.51.62 1.03.2 1.13.2 1.03.1zm.92 1.54c0-.1-.2-.52-.41-.62-.2-.2-1.23-.71-1.33-.71-.1.1.4.71.92 1.02.71.4.82.4.82.3z"/><path d="M194.99 68.12c0 .2-.1.51-.2.72 0 .1-.1.2-.21.2-.1 0-.2.2-.1.31 0 .1 0 .1-.1.3-.1.11-.1.21-.1.31s-.11.62-.32 1.13c-.3 1.03-.5 1.33-1.02 1.23-.4 0-1.74-.2-4.1-.3-1.63-.1-3.27 0-13 .5-3.07.21-3.07.21-3.48 0-.3-.1-.41-.2-.41-.4v-.41s.1-.31.1-.62c0-.51 0-.51-.3-.51-.21 0-.31 0-.31-.3 0-.11 0-.52.1-.72 0-.31.1-.72.1-1.03 0-.3 0-.61.1-.61 0 0 .1-.2.1-.41.31-1.64 1.54-7.68 1.64-8.3.2-.5.41-1.33.62-2.15.1-.4.2-.82.3-.82v.2c-.1.42-.4 2.06-.4 2.16 0 0 .1-.1.2-.51.1-.31.2-.82.41-1.23.61-1.85 1.13-4.5 1.02-5.02 0-.2 0-1.13.2-2.25.42-2.56.73-4.1 1.65-7.68.2-.72.4-1.54.3-1.64v-.82c.1-.41.1-.72.31-.82l.2-.2.1.2.21.2.31-.2c.2-.2.41-.3.72-.3.61 0 1.94 0 2.46.2.2.1.5.1.61.1.41 0 .51.41.51 1.43 0 .93-.1 1.54-.92 4.3-.2.62-.2.72-.1.82.1.1 0 .93-.3 2.46-.21.92-.73 3.59-1.03 6.04-.1.82-.31 1.85-.41 2.15-.1.62-.62 2.77-.92 4.71-.2 1.34-.31 1.44-.93 4.51l-.4 1.95h1.12c1.95.1 2.46.2 2.36.3 0 .1.1.1.82.1h1.42c.21 0 .32 0 .32.1 0 .11 1.12.21 2.15.11.71-.1.71-.2 0-.2-.2 0-.31 0-.31-.1 0-.11.61-.21 1.33-.42.92-.1 6.76-.1 7.17 0 .61-.1.72.41.4 1.23zm-18.13-14.64v.2c.1 0 .1-.1 0-.2zm1.33 3.89c0-.2.2-1.13.31-1.95.2-.92.41-2.04.51-2.66.31-1.23.72-4.3.72-4.91 0-.41.3-2.46.51-3.49 0-.2.1-.71.1-1.02.1-.82.21-1.94.41-2.97 0-.4.1-.72 0-.82h-.2c-.1 0-.1.1-.1.3 0 .21-.31 1.85-.51 2.36 0 0 0 .1 0 0 .1-.1.2.1.2.72s-.4 2.56-1.33 6.86c-.41 2.05-.92 5.12-1.13 6.35 0 .3-.1 1.02-.3 1.74-.1.72-.2 1.54-.31 1.74 0 .31 0 .72-.1.82 0 .41.2-.3.5-1.74.42-.4.62-1.13.72-1.33zm.2-18.23s0 .1 0 0c.11.1.21 0 .21 0s-.1-.1-.2 0c0-.1 0-.1 0 0zm6.26 28.37c-.41 0-.82 0-.93.1-.4.1.72.1 1.23 0 .31-.1.31-.1-.3-.1zm5.73.3h-.81c.1 0 .3.1.6.1.21 0 .31 0 .21-.1zm2.46 1.13h-.3l.2.1c.3.2.5.2.61 0 .1-.1-.1-.1-.51-.1zm.4.62h-.1.1c0 .1 0 0 0 0z"/><path d="M219.77 39.65c0 .52-.2 1.03-.41 1.13 0 0-.1.1-.1.2 0 .31-.62 1.23-1.03 1.64-.4.52-.71.52-2.05.41-.92 0-1.53 0-1.43.1 0 .1-.82 3.08-1.23 3.9-.5 1.23-.5 1.43-1.02 2.97-.2.71-.51 1.74-.72 2.15-.1.4-.4 1.23-.51 1.84-.2.72-.41 1.54-.51 1.84-.1.41-.2 1.13-.2 1.64s-.1 1.13-.1 1.44c0 .3-.11.71-.21 1.12-.1.3-.2.92-.31 1.33a7.9 7.9 0 0 0-.2 1.54c0 .51-.1 1.43-.31 2.05-.1.71-.2 1.23-.2 1.33 0 .1.3.1.7.2.42 0 1.54.1 2.26.1l1.54.1.2.32c.3.4.41.71.2 1.02-.1.2-.1.4-.1.51 0 0-.1.2-.2.2s-.2.1-.2.21c0 0-.1.2-.31.41-.1.1-.3.41-.3.51-.11.72-.73 1.54-1.24 1.64-.72.2-1.74.3-10.03.51h-2.46c-.41 0-.82-.1-.92-.2-.2-.1-.41-.51-.41-.72 0-.2-.2-.1-.3.2-.11.31-.42.52-.42.21 0-.1 0-.2-.2-.2s-.2-.1-.1-.62c0-.3.1-.72.2-.92 0-.2.2-.72.3-1.13.42-1.33.62-1.74.93-1.84a7.1 7.1 0 0 1 1.64-.3h2.66l.2-1.34c.41-1.94 1.13-5.32 1.33-5.94.1-.3.31-.61.41-.71.1-.2.1-.2.1 0 0 .1-.2.82-.4 1.53-.1.72-.31 1.64-.41 2.15 0 .41-.2 1.54-.41 2.46-.31 1.54-.31 1.95-.2 1.74l.2-.61c0-.31.1-.62.2-.52.1 0 .1-.1.62-2.76.2-1.02.4-2.36.61-2.97.1-.72.41-1.74.51-2.46.1-.71.41-1.84.62-2.66.5-2.25.71-3.07.82-4 .1-.92.5-3.17.61-3.48 0-.1.1 0 0 .31v.51s.2-.61.41-1.43c.2-.72.2-.92.51-1.54.41-1.33.72-2.25.62-2.25-.1-.1-2.87 0-3.08.1l-.3.1h.4c.31 0 .42 0 .42.1 0 0-.41.11-.82.11h-.72l-.1-.3c0-.21-.1-.31-.41-.31-.41 0-.82-.1-.72-.31 0 0 .1-.1.3-.1.11 0 .21 0 .21-.1 0-1.54.2-2.46.52-2.87.1-.1.2-.3.2-.41 0-.2.1-.2 3.18-.41 3.48-.2 6.96-.3 8.7-.3 1.43 0 1.64.1 1.84.2.1.1.41.2.51.3.52.31.72.72.62 1.33zm-21.4 27.96c0-.1 0-.1-.1-.1s-.1.1-.1.2 0 .1.1.1c.1-.1.1-.2.1-.2zm.3 0c-.1 0-.2.1-.2.4-.1.42 0 1.44.1 1.34 0 0 .1-.4.3-.72.21-.82.21-1.02-.2-1.02zm.82.3c0-.1 0-.1-.1 0 0 .1-.1.21-.1.31s0 .1.1 0c0-.1.1-.2.1-.3zm.1-.5c-.1-.1-.2 0-.1.1h.1c.1 0 .1 0 0-.1zm5.23-28.06c-.1 0-.2.5-.2 1.23v.61l.1-.3c.1-.1.1-.62.2-.83 0-.61 0-.71-.1-.71zm.72 15.97c.1-1.12.61-3.48 1.02-4.5l.1-.41v.71c-.1.41-.3 1.44-.51 2.46-.61 2.05-.72 2.46-.61 1.74zm4.2-15.77c-.21 0-1.13.1-2.05.1-1.13 0-1.54.1-1.64.2-.1.11-.1.32 0 .21.1 0 .71-.1 1.33-.1 2.35-.2 2.56-.2 2.66-.3.1-.1 0-.1-.3-.1zm.5 29.08v-.2s-.3-.1-.6-.1c-.62 0-.83 0-.83.3 0 .1.1.1.72.1.72.1.82.1.72-.1zm-1.22-.92c-.1.3 0 .51.2.41.1 0 .51-.1.82-.1.72-.1.72-.2-.3-.3-.62-.11-.72-.11-.72 0zm5.32-34.3c.41-.1.82-.3 1.03-.41.1 0 .5-.1.71-.1.2 0 .41 0 .62-.1.3-.1.2.4-.1.5-.31.1-.52.72-.21.62.4-.1.51 0 .4 0-.1.1 0 .1 0 .2.11 0 .11.1.11.1s0 .21.1.42c.2.71 0 .92-2.45 1.74-2.05.71-2.67.92-3.49 1.02-.2 0-.6.1-.71.1-.2 0 0-.1.2-.2.1 0 .2 0 .2-.1 0 0-.3 0-.6.1-.42.1-.72.2-.83.2-.2 0-.3-.61-.1-1.12a3.7 3.7 0 0 1 1.54-1.54c.71-.3 2.66-1.12 3.58-1.43zm-1.94 19.25c-.31 1.23-.52 2.35-.62 2.56 0 .1-.1.4-.2.61l-.1.31v-.51c0-.92.81-4.5 1.22-5.22.2-.41.2.1-.3 2.25zm1.33-13.21v-.2c0-.1-.1-.1-.2-.1-.11 0-.21 0-.21.1s0 .1.1.1c0 0 .1 0 .1.1l.1.1c.1 0 .1 0 .1-.1zm4.81-1.02c0-.2-.4-.1-.61 0-.2.3-.1.4.1.2.2-.1.3-.1.51-.2-.1.1 0 0 0 0z"/><path d="M248.75 39.45c0 .82-.1 1.33-.41 2.25-.2.72-.51 2.15-.82 3.28-.3 1.13-.62 2.05-.62 2.15 0 0-.3.72-.5 1.43-.21.72-.62 1.95-.83 2.67-.3.71-.5 1.43-.5 1.43h.1c.1 0 .1 0 0 .3 0 .21 0 .72-.1 1.03-.11 1.43-.52 3.58-1.44 7.78-.3 1.23-.72 2.97-.82 3.8a41 41 0 0 1-1.54 6.03c-.2.41-.2.41-.61.41-.3 0-.51.1-.72.31-.3.3-.3.41.2.2.1 0 .21-.1.31 0s-.4.41-.61.41h-1.23c-.51 0-.92 0-.92-.1h1.43s-.1-.2-.3-.4c-.2-.21-.31-.21-.62-.21-.2 0-.4 0-.51-.1-.2-.2-.2-.2-.3 0 0 .2-.11.2-.21.2-.1 0-.2 0-.31-.1-.1 0-.92-.82-.92-1.03 0-.3-.51-1.33-.82-1.53-.1-.1-.3-.41-.41-.62-.3-.61-1.54-4.3-1.95-5.94a23.05 23.05 0 0 0-1.63-4.5c-.62-1.23-.72-1.54-.72-1.03.1.41 0 .2-.41-.71a33.25 33.25 0 0 0-1.23-3.07c-.1-.2-.3-.72-.61-1.54-.1-.3-.2-.51-.2-.41-.11 0-.32 1.23-.73 3.48-.2 1.23-.71 3.59-1.43 6.15-.2.71-.3 1.33-.3 1.53 0 .3-.31 2.77-.72 4.5-.31 1.24-.72 3.08-.72 3.8-.1.71-.2.92-.51.82-.2 0-.3 0-.41.1-.1.1-.41.3-.62.4-.4.21-.61.21-1.74.31h-1.53c-.31-.2-.41-.4-.31-.81.1-.31.1-.41 0-.41-.1-.1-.1-.2-.1-.62 0-.51 0-.51-.2-.61-.11-.1-.21-.2-.21-.31 0-.2.51-1.54.61-1.64 0 0 .1-.1.1-.4.2-.62.62-2.88.62-3.29 0-.4.2-1.84.82-5.22.1-.71.4-2.66.71-4.3.31-1.64.62-3.48.72-4a409 409 0 0 1 1.23-5.21c0-.2.3-1.03.51-1.75.72-2.76.82-3.07 1.03-3.68.1-.3.3-.72.4-.92.1-.2.21-.52.21-.62 0 0 .1-.2.2-.2.31-.2 1.03-.3 1.13-.2 0 .1.2.1.51.1.2 0 .72 0 1.03.1.3 0 .71.1.92.1.61 0 .72.2 1.02 1.13.31 1.33.62 1.84 1.33 3.58 1.34 2.77 1.95 4.4 2.05 5.22 0 .41.2 1.03.31 1.33.1.31.2.72.2.72s-.2-.3-.3-.61c-.41-1.03-.41-.72 0 .4.51 1.34.92 2.16 1.02 2.05.1-.1.82 1.54.92 2.26.1.71.52 1.53.72 1.84.2.2.41.61.61 1.13.41 1.02.52 1.23.52 1.12 0-.1-.72-2.15-1.54-4.3-.72-2.05-1.33-3.38-1.23-3.48 0-.3 2.36 5.22 2.87 6.86.2.62.4 1.33.4 1.64 0 .3.21.82.42 1.33.2.41.3.82.3.92 0 .1 0 .2.1.2.11.11.21.11.21-.1.1-.4.1-1.22 0-1.33-.1-.1 0-.4.2-2.15.11-1.12.31-2.25.31-2.45 0-.2.1-.82.2-1.44.11-.61.42-1.84.62-2.76.2-.92.62-2.56.82-3.48.31-.93.62-2.15.72-2.67.1-.5.4-1.33.51-1.64.1-.4.3-1.22.51-1.94.2-.72.31-1.33.41-1.33 0-.1.1-.3.2-.51.11-.52.42-1.03.62-1.23 0-.1.1-.2 0-.41 0-.41.31-.62 1.13-.72.82 0 2.25.1 2.46.3 0 .11.2.11.3.11.1 0 .2 0 .31.1.41-.3.41-.2.3.72zm-25.7 32.05c0-.2 0-.3-.2-.3-.11 0-.21 0-.21.1v.3c0 .1 0 .1.2.1.2.1.2.1.2-.2zm5.32-30.3-.1-.21v.2c0 .2 0 .2-.2-.1-.1-.2-.1-.2-.1-.1v.3c0 .1.1.31.2.62.1.5.2.5.3 0 0-.31 0-.62-.1-.72zm-.3-1.96h.1c0-.1-.1-.1-.1 0-.1-.1-.1 0 0 0zm1.32.41s0-.3-.1-.3c0 0-.1 0-.1.1-.1.3 0 .3.2.2zm.93 6.97c0-.41-.1-.92-.31-1.33-.1-.41-.2-.93-.3-1.13-.11-.72-.21-.61-.42.3 0 .42 0 .52.51 1.65.31.71.52 1.22.52 1.12.1 0 0-.3 0-.61zm1.74 5.42c-.1-.4-.31-.92-.41-1.12-.2-.41-.31-.51-.31-.1 0 .2 0 .1-.3-.41-.1-.31-.31-.62-.31-.62 0 .1.71 1.95 1.02 2.66.2.41.3.62.3.52 0-.1 0-.1.1-.1.21.2.21 0-.1-.83zm4.2 4.61c0-.2-.72-1.94-.82-2.25-.2-.3-.1-.2.3 1.23.31 1.02.52 1.43.52 1.02zm1.43 14.75c0-.1-.1-.3-.3-.62-.42-.61-.42-.5 0 .62 0 .3.3.2.3 0zm-.3-6.04v.2c0 .1 0 .1 0 0 .2 0 .1-.2 0-.2 0-.2 0-.2 0 0zm7.26-11.37c-.1.1-.3.92-.2.92 0 0 .1-.1.1-.3.1-.21.2-.41.1-.62.1-.1.1-.1 0 0z"/><path d="M269.13 39.65c0 .52-.2 1.03-.41 1.13 0 0-.1.1-.1.2 0 .31-.62 1.23-1.03 1.64-.41.52-.72.52-2.05.41-.92 0-1.53 0-1.43.1 0 .1-.82 3.08-1.23 3.9-.51 1.23-.51 1.43-1.02 2.97-.2.71-.52 1.74-.72 2.15-.1.4-.41 1.23-.51 1.84-.2.72-.41 1.54-.52 1.84-.1.41-.2 1.13-.2 1.64s-.1 1.13-.1 1.44c0 .3-.1.71-.2 1.12-.11.3-.21.92-.31 1.33a7.9 7.9 0 0 0-.2 1.54c0 .51-.11 1.43-.32 2.05-.1.71-.2 1.23-.2 1.33 0 .1.3.1.72.2.4 0 1.53.1 2.25.1l1.53.1.2.32c.32.4.42.71.21 1.02-.1.2-.1.4-.1.51 0 0-.1.2-.2.2s-.2.1-.2.21c0 0-.11.2-.32.41-.1.1-.3.41-.3.51-.1.72-.72 1.54-1.23 1.64-.72.2-1.74.3-10.04.51h-2.45c-.41 0-.82-.1-.93-.2-.2-.1-.4-.51-.4-.72 0-.2-.21-.1-.31.2-.1.31-.41.52-.41.21 0-.1 0-.2-.2-.2-.21 0-.21-.1-.1-.62 0-.3.1-.72.2-.92 0-.2.2-.72.3-1.13.41-1.33.62-1.74.92-1.84a7.1 7.1 0 0 1 1.64-.3h2.66l.21-1.34c.4-1.94 1.13-5.32 1.33-5.94.1-.3.3-.61.41-.71.1-.2.1-.2.1 0 0 .1-.2.82-.4 1.53-.1.72-.31 1.64-.42 2.15 0 .41-.2 1.54-.4 2.46-.31 1.54-.31 1.95-.21 1.74l.2-.61c0-.31.1-.62.2-.52.11 0 .11-.1.62-2.76.2-1.02.41-2.36.62-2.97.1-.72.4-1.74.51-2.46.1-.71.4-1.84.61-2.66.52-2.25.72-3.07.82-4 .1-.92.52-3.17.62-3.48 0-.1.1 0 0 .31v.51s.2-.61.4-1.43c.21-.72.21-.92.52-1.54.4-1.33.72-2.25.61-2.25-.1 0-2.86 0-3.07.1l-.3.1h.4c.31 0 .41 0 .41.1 0 0-.4.11-.82.11h-.71l-.1-.3c0-.21-.1-.31-.41-.31-.41 0-.82-.1-.72-.31 0 0 .1-.1.3-.1.1 0 .21 0 .21-.1 0-1.54.2-2.46.51-2.87.1-.1.2-.3.2-.41 0-.2.11-.2 3.18-.41 3.48-.2 6.97-.3 8.7-.3 1.44 0 1.64.1 1.85.2.1.1.4.2.51.3.41.31.72.72.62 1.33zm-21.4 27.96c0-.1 0-.1-.1-.1-.11 0-.11.1-.11.2s0 .1.1.1c0-.1.1-.2.1-.2zm.3 0c-.1 0-.2.1-.2.4-.1.42 0 1.44.1 1.34 0 0 .1-.4.3-.72.21-.82.1-1.02-.2-1.02zm.82.3c0-.1 0-.1-.1 0 0 .1-.1.21-.1.31s0 .1.1 0c0-.1.1-.2.1-.3zm.1-.5c-.1-.1-.2 0-.1.1h.1v-.1zm5.23-28.06c-.1 0-.2.5-.2 1.23v.61l.1-.3c.1-.1.1-.62.2-.83 0-.61 0-.71-.1-.71zm.71 15.97c.1-1.12.62-3.48 1.03-4.5l.1-.41v.71c-.1.41-.3 1.44-.51 2.46-.62 2.05-.72 2.46-.62 1.74zm4.1-15.77c-.2 0-1.13.1-2.05.1-1.13 0-1.54.1-1.64.2-.1.11-.1.32 0 .21.1 0 .72-.1 1.33-.1 2.36-.2 2.56-.2 2.67-.3.2-.1.1-.1-.31-.1zm.61 29.08v-.2s-.3-.1-.61-.1c-.62 0-.82 0-.82.3 0 .1.1.1.72.1.61.1.71.1.71-.1zm-1.33-.92c-.1.3 0 .51.2.41.1 0 .52-.1.83-.1.71-.1.71-.2-.31-.3-.51-.11-.62-.11-.72 0zm3.48-15.05c-.3 1.23-.5 2.35-.61 2.56 0 .1-.1.4-.2.61l-.1.31v-.51c0-.92.81-4.5 1.22-5.22.2-.41.2.1-.3 2.25zm1.33-13.21v-.2c0-.1-.1-.1-.2-.1s-.2 0-.2.1 0 .1.1.1.1 0 .1.1l.1.1c.1 0 .1 0 .1-.1zm4.71-1.02c0-.2-.4-.1-.61 0-.2.3-.1.4.1.2.31-.1.41-.1.51-.2 0 .1 0 0 0 0z"/><path d="M291.65 42.62a11.07 11.07 0 0 1 1.23 4.51c0 1.54-.3 2.25-.92 2.25h-.4c-.32.31-.83.1-.83-.3 0-.2 0-.2-.2-.2-.1 0-.31 0-.41-.11-.1 0-.1 0-.1.1s-.1.3-.2.51c-.11.2-.21.2-.52.2-.2 0-.51 0-.72-.1-.4 0-.4 0-.51-.3-.1-.2-.2-.41-.2-.51-.1-.1-.41-1.23-.41-1.64a4.46 4.46 0 0 0-3.18-2.77c-.2 0-.61 0-1.02.1-.41.1-.82.1-1.03.1-.5-.1-1.02.21-1.53.72l-.72.72c-.72.51-3.17 4-3.9 5.74a64.97 64.97 0 0 0-1.42 4.1c-.52 2.24-.72 4.09-.52 4.4.1 0 .1 0 .2-.42l.11-.5v.91c0 1.34.2 2.67.51 3.9.1.61.31 1.12.41 1.22 0 0 .2.31.3.72.32.72.52.82 1.55.92 1.43.31 3.37-.5 5.01-1.94l.62-.51-.51.5a7.83 7.83 0 0 1-5.12 2.46h-.72l.3.21c.42.3.62.4 1.34.4.71 0 1.43-.2 1.94-.5.2-.1.72-.51 1.13-.72.4-.3 1.13-.82 1.53-1.33.41-.41 1.03-.82 1.23-1.02.2-.1.31-.2.31-.31 0-.1.2-.51.62-.92 1.43-2.05 2.25-3.38 2.66-5.23.4-1.53.4-1.53.71-1.53.52 0 1.23.4 1.64.92.51.61.62.92.62 1.64v1.23c0 1.02-.1 1.64-.51 2.76-1.34 3.38-3.7 6.25-6.25 7.48-.3.1-1.03.4-1.54.71a9.57 9.57 0 0 1-4.7 1.03c-1.13 0-1.24 0-1.95-.3-1.33-.52-1.95-.93-2.56-1.85-.2-.31-.62-.72-.82-.82-1.13-.82-1.95-2.15-2.77-4.2a7.76 7.76 0 0 1-.61-3.58c0-1.85.1-3.08.51-4.61.1-.72.3-1.54.3-1.95.21-1.02.42-2.25.72-3.27 1.13-4.1 3.8-8.3 6.25-10.04.41-.2.82-.72 1.23-.92a12.75 12.75 0 0 1 4.1-2.25c.61-.1 1.63 0 2.35.2.3.1.82.2 1.74.2.72 0 1.54 0 1.84.1a7 7 0 0 1 3.8 3.7zm-17.92 21.5c0-.1-.1-.7-.2-1.43-.2-1.94-.3-2.86-.41-2.86 0 0 0 .2-.1.4-.1.93-.2 1.44-.31 1.44-.1 0-.1.51.2 1.13.41 1.23.93 1.94.82 1.33zm-1.12-9.82v-.2c0-.1.1-.31.1-.42v-.2l-.1.2v.41zm.1-1.95v.72s.1-.51.3-1.03c.1-.6.21-1.12.21-1.33 0-.1 0-.4.1-.61.1-.41.1-.51-.1-.3 0 .1-.2.5-.4.91-.11.72-.11.93-.11 1.64zm1.13 15.46c-.1-.2-.31-.3-.41-.4-.2-.1-.2-.1 0 .1.2.4.71.92 1.23 1.23.4.3.81.4.71.1l.2.1c.31.2.72.41.72.3 0 0-.1-.2-.3-.3-.2-.2-.41-.3-.52-.3-.3.1-1.22-.42-1.63-.83zm5.22-26.41c-.41 0-2.25 1.63-3.18 2.86-.61.82-1.22 1.74-1.33 2.05 0 .1-.1.3-.1.41 0 .1.1-.1.41-.4.2-.42.61-.83.82-1.03.2-.2.72-.82 1.13-1.23.3-.51 1.02-1.23 1.53-1.74.41-.52.82-.92.72-.92zm5.02-1.75s-.52-.1-1.03-.1c-.71 0-1.02 0-1.53.1-1.03.41-.31.52 1.53.2.51 0 1.03-.1 1.03-.2.1.1.1 0 0 0zm5.42 1.54c0-.1-1.53-.82-1.53-.72-.1.1.1.41.5.62 1.03.2 1.14.2 1.03.1zm.92 1.54c0-.1-.2-.52-.4-.62-.2-.2-1.23-.71-1.34-.71-.1.1.41.71.93 1.02.71.4.81.4.81.3z"/><path d="M314.28 72.12c0 .71 0 .71-.2.92-.2.1-.62.1-.62 0s-.5-.52-.6-.52v.31c.1.41 0 .72-.11.41 0-.1-.1-.1-.41-.1-.41 0-.72-.2-.82-.51 0-.1-.1-.2-.3-.2-.32-.21-.52 0-.42.5 0 .41 0 .41-.2.41-.1 0-.2-.1-.3-.2-.11-.1-.21-.2-.32-.2-.2 0-.92-1.13-.92-1.54 0-.1 0-.62-.1-.92a60.3 60.3 0 0 1-.72-6.66v-.61h-1.02c-3.07 0-7.68.4-7.89.61l-1.53 2.46a72.14 72.14 0 0 1-4 6.04c-.3.3-.71.41-1.22.41-.41 0-.52 0-.72-.3-.2-.31-.3-.72-.1-1.24 0-.2.1-.5.1-.71 0-.31.1-.62.3-1.03.1-.3.31-.61.31-.71 0-.1-.1-.2-.2-.31l-.3-.3-.42.91a5.05 5.05 0 0 0-.72 2.46c0 .51 0 .51-.1.3-.2-.3-.51-.81-.51-1.22 0-.41.82-2.05 2.05-4.1.51-.82 1.33-2.25 1.74-3.17.4-.82 1.02-2.05 1.33-2.56.3-.51.61-1.13.72-1.33.1-.2.3-.62.5-.82.21-.3.73-1.23 1.14-2.05a31.6 31.6 0 0 1 1.63-2.76 12.57 12.57 0 0 0 1.74-2.56c.2-.41.1-.62-.1-.2-.1.1-.2.1-.2.1-.2-.21.71-2.26 2.05-4.2.61-.93 1.33-2.05 1.63-2.57.31-.5.82-1.22 1.13-1.53.3-.41.72-1.03 1.02-1.64.52-1.02 1.03-1.64 1.34-1.64.1 0 .2-.1.3-.2.2-.2.2-.2.62-.1.2 0 .61.1.82.1.2 0 .5 0 .71.1.31.1.41.1.51 0 0 0 .21-.1.41-.1.31 0 .41 0 .52.3.1.2.2.72.3 1.13.1.72.1.92.52 6.25.1 1.64.2 4.2.4 5.73.1 2.25.21 3.59.21 7.37 0 3.7 0 4.71.1 4.82 0 .1.1.61.2 1.12.11.52.11 1.13.21 1.44.1.2.2 1.33.3 2.45.11.52.21 1.85.21 2.16zm-15.25-15.06c.1-.3.2-.5.2-.5s-.82 1.42-1.02 1.94c-.31 1.12-.41 1.33-.41 1.43.1.1.2 0 .51-.41.1-.2.3-.72.51-1.02.2-.31.3-.72.3-.82.11-.2 0-.2-.1 0-.3 0-.3 0 0-.62zm9 1.23c0-.51-.1-1.43-.1-2.15-.1-2.76-.71-8.4-.71-8.3-.1 0-.82 1.54-1.03 2.16-.1.3-.2.71-.3.71 0 .2 0 .2.1 0 .2-.3.2-.2.1.2-.2.62-.1.42.41-.4 1.03-1.64.51-.51-.82 2.05-.71 1.33-.82 1.53-2.46 4.5-.71 1.33-1.33 2.36-1.33 2.46h.2c.11 0 .73-.1 1.34-.1.61 0 1.84-.1 2.87-.2.92 0 1.84-.1 1.84-.1s0-.42-.1-.83zm.31-11.88v-.71s0-.1-.1-.1-.1 1.22 0 1.43c.1.1.2 0 .1-.62zm2.36-6.55c0-.2 0-.2-.4 0-.42.1-.32.2.1.2.2 0 .3 0 .3-.2zM311.93 55c0-.5-.1-1.63-.3-2.66-.21-1.74-.32-3.58-.52-7.88-.1-2.15-.1-2.46-.2-2.46s-.1.2-.21 1.84c-.1 2.26 0 4.4.3 5.33.11.4.21 1.33.31 2.25.1.82.2 1.84.31 2.25 0 .52.1 1.23.2 1.64 0 .51 0 .72.1.72.11 0 .11-.41 0-1.03zm.92 16.18c0-.3-.1-.61-.2-.5 0 .1.1.91.2.91v-.4z"/><path d="M355.65 57.98c-.2.72-.71 2.36-1.23 3.08-.2.3-.6.82-.81 1.12-.2.31-.72.82-.82 1.23a17.63 17.63 0 0 1-6.45 5.84 42.73 42.73 0 0 1-4.51 1.94c-.72.2-1.64.62-2.15.82-.72.31-1.23.51-1.95.62-.92.2-1.23.2-2.86.1-1.74-.1-2.26 0-3.28.1-.1 0-.41 0-.61-.1-.41-.2-.72-.61-.72-1.02 0-.1 0-.2-.2-.31-.21-.2-.52-1.03-.52-1.64 0-.3.1-1.13.2-1.74.1-.72.42-2.15.72-3.28.2-1.12.52-2.86.72-3.79.61-3.79 1.33-8.3 1.95-11.26.81-4.2 1.53-8.4 1.53-8.9 0-.11.1-.32.2-.42l.52-.51c.2-.2.51-.3.92-.51.41-.1.82-.2.92-.31.3-.1.72-.1 1.13 0 .4 0 .4 0 .61-.1.1 0 .41-.2.72-.3.51-.11.82-.21 2.05-.11 2.86 0 4.81.51 6.76 1.84a11.9 11.9 0 0 1 3.07 2.66 19.33 19.33 0 0 1 3.58 6.25c.41 1.02.41 1.23.41 2.15 0 .51 0 1.23-.1 1.54-.1.61 0 2.04.1 1.53 0-.1.1-.2.2-.2s.1 0 .1-.1c0 0 0-.1.11-.1.2-.1 0 2.45-.3 3.88zm-24.57 9.83c.3-1.53.82-4.3.82-4.6 0-.52-.1-.41-.52.5-.1.42-.3.73-.3.62 0-.2-.1.1-.2.72-.1.61-.1 2.97 0 3.07 0 .2.1 0 .2-.3zm.51 3.9c-.51 0-.51 0-.51.2s.2.2.71.1c.41-.1.31-.2-.2-.3zm3.17-22.12c0-.2 0-.2-.3.1-.2.3-.31.61-.41 1.54 0 .2-.1.5-.1.5l-.21 1.54c-.1 1.54-.3 2.97-.82 4.82-.3 1.23-.61 2.97-.61 3.27 0 .1.1-.2.2-.61s.2-.82.3-.92c0-.1.21-.62.32-1.13.1-.51.3-1.02.3-1.13.2-.4.72-2.45.72-3.48 0-.5.1-1.12.2-1.33 0-.2.1-.61.1-.72 0-.2 0-.2-.1 0-.2.52-.2.31 0-1.12.31-.62.41-1.23.41-1.33zm15.77 3.89c-.1-1.84-.3-2.46-1.43-4.4l-.3-.52.4.31c.51.51.41.2-.3-.72-.52-.71-.62-.71-1.64-1.33-2.15-1.02-4.5-1.74-6.35-1.74-.62 0-1.23 0-1.44.1-.3 0-.3.1-.3.31.1.3-.31 2.56-.82 4.81-.2 1.03-.3 1.44-1.54 7.38-.4 1.94-.82 3.68-.82 3.89a76.31 76.31 0 0 0-1.02 5.43c0 .1.3.1 1.43-.1a21.6 21.6 0 0 0 6.25-2.16c.72-.3 1.64-.71 2.05-.92 2.15-.82 3.68-2.76 5.12-6.45.61-1.13.71-1.95.71-3.9zM336.4 42c0-.2.1-.51 0-.51-.1-.1-.2.1-.3.71 0 .62.1.52.3-.2zm.1-.82s.1-.1.1-.3c0-.21-.1-.31-.2-.1-.1.1 0 .4.1.4zm9.53 25.2s-.3.1-.72.5c-.72.41-1.13.72-1.13.62 0 0 .21-.1.52-.31.82-.61 1.12-1.13.3-.61-.61.4-1.33.71-2.15.92-.5.1-.92.3-.92.3-.2.1-.1-.2.2-.4.1-.1.31-.21.21-.21-.1-.1-2.56 1.43-2.56 1.64 0 .2-.51.4-1.12.4-.82.11-1.85.42-1.85.62s1.13 0 2.46-.3c2.15-.52 4-1.23 5.22-1.85.51-.4 1.54-1.23 1.54-1.33zm-6.86.6c.92-.4 1.23-.4 1.23-.3.1.1.4 0 1.53-.51.3-.1.92-.41 1.44-.62 1.02-.51 1.94-1.02 2.04-1.33 0-.1.1-.2.1-.2h.1c0-.1-.91.3-2.65 1.12a42.97 42.97 0 0 1-4.82 1.95c-.61.2-1.02.4-1.02.4 0 .11 1.13-.1 2.05-.5zm.71-27.64h1.34H339.37h.51zm-.2 3.27c-.1 0-.2.1-.2.31 0 .2 0 .2.6.1.32 0 1.44-.1 2.57-.1h1.64c-.1 0-.51-.1-.72-.1-.51-.2-3.69-.3-3.9-.2zm5.32.41h.1-.1c-.1 0-.1 0 0 0zm9.94 12.6c-.1.3-.31.92-.52 1.43-.3.72-.3.92-.4 1.74 0 .52-.1 1.03-.1 1.23 0 .3.81-1.43.91-1.94 0-.1.1-.72.2-1.23 0-.51.11-1.03.11-1.33.1-.72-.1-.62-.2.1z"/><path d="M385.76 42.32c-.2.5-.2.5 0 .92.1.4.1.61-.1.61-.1 0-.2.1-.31.2-.1.11-.2.21-.3.21-.11 0-.21 0-.31.1s-.82 0-1.64 0c-1.23 0-2.15 0-3.28.1-.82.11-2.15.21-2.87.31-1.64.1-5.63.62-6.45.72-1.94.41-3.28.72-3.38.82-.3.3-.82 2.77-.61 2.97.1 0 0 1.23-.51 3.07-.2.82-.31 1.54-.31 1.54s.61-.1 1.43-.2c1.54-.21 5.43-.62 7.17-.72.72 0 1.33-.1 1.54-.2.4-.11 2.04-.21 2.56-.11.4.1.71.4 1.23 1.02.4.62.4.92.2 2.26-.1.61-.1.82 0 1.12 0 .1.1.41.1.51 0 .31-.5.72-.92.72-.2 0-.51.1-.72.3-.5.32-.82.42-2.15.62-1.63.2-3.89.41-5.42.31-1.13 0-1.95 0-3.49.2-1.12.1-2.15.21-2.35.21-.3 0-.41 0-.41.3 0 .21-.1.52-.51 2.26-.92 4.2-.92 4.5-.92 4.5s1.02-.2 2.25-.5c1.84-.42 3.28-.72 6.25-1.24.4 0 1.12-.1 1.63-.2.62-.1 1.13-.2 1.44-.3.2-.11.71-.31 1.12-.42.31 0 .82-.2 1.03-.2.71-.2 1.53-.3 2.56-.1.51 0 .92.2 1.02.2 0 .1.2.1.41.1.1 0 .2 0 .2.1s.1.31.21.52c.2.3.2.3 0 .5-.1.11-.1.11 0 .32.3.2.41.2.41 0 .1-.1.1-.1.1.2 0 .2.1.51.1.72 0 .2 0 .3-.1.51-.2.1-.3.41-.4.92-.21.92-.42 1.13-1.44 1.54-.4.1-1.02.4-1.54.51-.5.2-1.02.3-1.74.4-.5 0-2.45.42-4.4.73-4.6.92-5.53 1.02-7.48 1.02h-1.84a10.8 10.8 0 0 1-2.66-.72c-.3-.1-.72-.3-1.02-.4-.2 0-.62-.21-.72-.42-.1-.1-.41-.3-.41-.3-.1 0-.2-.1-.2-.31 0-.3-.1-.41-.31-.2-.1.1-.1.1-.31-.52-.1-.5-.2-3.07-.1-3.89 0-.4.1-.72.2-.72s.1-.1.2-.2c.1-.3.42-2.05.72-3.79.2-1.13 0-.3.31-.82.1-.2.3-1.33.51-2.46.2-1.12.62-2.86.82-3.89.3-1.02.51-2.25.62-2.76.1-1.03.71-4.5 1.23-6.25.1-.71.4-1.84.61-2.56.3-1.53.4-1.84.4-1.23 0 .31 0 .41.21.31h.2s.21-.1.32-.3c.1-.31.1-.42 0-.42h-.2c-.11 0 0-.3.1-.5.71-.62 4.7-1.03 6.96-.73 1.53.21 1.84.21 2.25 0 .4-.1.92-.1 3.48-.1 1.74 0 3.79 0 4.71-.1.92-.1 2.15-.1 2.77-.1h1.02l.51.3.62.41c.1 0 .5.72.5.93.11.2-.2 1.02-.4 1.74zm-25.5 26.42s0-.2-.1-.41l-.1-.31v.3c0 .1 0 .31.1.42 0 .1.1.1.1 0zm2.15-14.75v-.61.2c-.1.1-.1.3 0 .41l-.1.2zm.2 14.44s.21.1.31.1h.1c-.1 0-.2-.1-.3-.1-.1-.2-.2-.1-.1 0zm1.85-27.14c-.1-.1-.1-.2-.61 2.05-.52 2.36-.62 3.48-.52 3.69.1.2.2 0 .31-.82.1-.3.2-1.23.3-1.85.62-2.66.62-2.96.52-3.07zm.82 9.63c0-.3-.1.1-.51 1.53-.2.93-.41 1.64-.41 1.64l.2-.4c.2-.52.72-2.67.72-2.77zm-.72-10.45c.1 0 .2 0 .2-.1v-.1c-.1 0-.2.1-.2.2-.1-.1 0 0 0 0zm1.85 27.96c1.53-.2 3.07-.51 5.12-1.13.61-.2 1.94-.5 3.07-.82 1.94-.5 2.76-.71 2.56-.82 0 0-.72.1-1.44.31-.71.1-2.04.41-2.97.62-1.94.3-2.56.5-2.56.61 0 .1-.81.3-2.15.51-.4 0-1.02.2-1.22.2a7 7 0 0 1-1.34.42c-1.43.4-1.22.4.93.1zm1.53-28.67c-.72.1-1.23.2-1.33.2-.1.1.1.1 2.05-.1l1.74-.2c.1-.1-1.23 0-2.46.1zm3.38 15.87c.2 0 .2 0 0 0a.5.5 0 0 0-.4 0c-.11.1.1.1.4 0zm.62-.1h.1c0-.1-.1-.1-.1 0-.1 0-.1 0 0 0zm1.22-.1c.41 0 1.54-.1 2.56-.31.93-.1 1.74-.31 1.74-.31s-.5-.1-1.02-.1c-1.02 0-.92 0-3.58.71h.3zm4.4 9.93c.11.2.11.2.31 0 .1 0 .1-.1 0-.2-.3 0-.4 0-.3.2zm.21.4s-.1 0 0 0c-.1.1-.1.21 0 .21v-.2c.1 0 .1 0 0 0zm.3.1h-.2l.2.21c.21.2.32.2.83 0 .4-.2.51-.4.1-.3h-.3s0-.1.1-.1.1 0 .1-.1c0 0 0-.11.1-.11s0 0 0-.1-.4-.1-.61 0c0 0-.1.1-.1.2-.1.2-.1.3-.21.3zm6.36-22.52s-.1-.1-.3-.2c-.21-.1-.52-.1-1.24-.1-.92.1-2.05.2-1.94.3h2.56c.71.1.92.1.92 0zm.1-1.23c0-.2 0-.2-.3-.2-.62 0-.72.2-.1.3.4.1.4.1.4-.1zm.1-2.46c-.2 0-.3 0-.2.1 0 0 .1.31.1.52.1.4.2.3.3-.3.11-.32.11-.32-.2-.32z"/><path d="M414.23 39.45c0 .82-.1 1.33-.41 2.25-.2.72-.52 2.15-.82 3.28-.3 1.13-.62 2.05-.62 2.15 0 0-.3.72-.5 1.43-.21.72-.62 1.95-.83 2.67-.3.71-.51 1.43-.51 1.43h.1c.1 0 .1 0 0 .3 0 .21 0 .72-.1 1.03-.1 1.43-.51 3.58-1.43 7.78-.31 1.23-.72 2.97-.82 3.8a41 41 0 0 1-1.54 6.03c-.2.41-.2.41-.61.41-.31 0-.52.1-.72.31-.3.3-.3.41.2.2.1 0 .21-.1.31 0s-.4.41-.61.41h-1.23c-.51 0-.92 0-.92-.1h1.43s-.1-.2-.3-.4c-.21-.21-.31-.21-.62-.21-.2 0-.41 0-.51-.1-.2-.2-.2-.2-.31 0 0 .2-.1.2-.2.2s-.2 0-.31-.1c-.1 0-.92-.82-.92-1.03 0-.3-.52-1.33-.82-1.53-.1-.1-.31-.41-.41-.62-.3-.61-1.54-4.3-1.95-5.94a23.05 23.05 0 0 0-1.64-4.5c-.61-1.23-.71-1.54-.71-1.03.1.41 0 .2-.41-.71a33.25 33.25 0 0 0-1.23-3.07c-.1-.2-.3-.72-.62-1.54-.1-.3-.2-.51-.2-.41-.1 0-.3 1.23-.72 3.48-.2 1.23-.71 3.59-1.43 6.15-.2.71-.3 1.33-.3 1.53 0 .3-.32 2.77-.73 4.5-.3 1.24-.71 3.08-.71 3.8-.1.71-.2.92-.51.82-.2 0-.31 0-.41.1-.1.1-.41.3-.62.4-.4.21-.61.21-1.74.31h-1.53c-.31-.2-.41-.4-.31-.81.1-.31.1-.41 0-.41-.1-.1-.1-.2-.1-.62 0-.51 0-.51-.2-.61-.11-.1-.21-.2-.21-.31 0-.2.5-1.54.61-1.64 0 0 .1-.1.1-.4.2-.62.62-2.88.62-3.29 0-.4.2-1.84.82-5.22.1-.71.4-2.66.71-4.3.31-1.64.62-3.48.72-4a409 409 0 0 1 1.23-5.21c0-.2.3-1.03.51-1.75.72-2.76.82-3.07 1.02-3.68.1-.3.31-.72.41-.92.1-.2.2-.52.2-.62 0 0 .11-.2.21-.2.31-.2 1.03-.3 1.13-.2 0 .1.2.1.51.1.2 0 .72 0 1.03.1.3 0 .71.1.92.1.61 0 .71.2 1.02 1.13.3 1.33.62 1.84 1.33 3.58 1.33 2.77 1.95 4.4 2.05 5.22 0 .41.2 1.03.3 1.33.11.31.21.72.21.72s-.2-.3-.3-.61c-.41-1.03-.41-.72 0 .4.5 1.34.92 2.16 1.02 2.05.1-.1.82 1.54.92 2.26.1.71.51 1.53.72 1.84.2.2.4.61.61 1.13.41 1.02.51 1.23.51 1.12 0-.1-.71-2.15-1.53-4.3-.72-2.05-1.33-3.38-1.23-3.48 0-.3 2.36 5.22 2.87 6.86.2.62.4 1.33.4 1.64 0 .3.21.82.42 1.33.2.41.3.82.3.92 0 .1 0 .2.1.2.1.11.21.11.21-.1.1-.4.1-1.22 0-1.33-.1-.1 0-.4.2-2.15.1-1.12.31-2.25.31-2.45 0-.2.1-.82.2-1.44.11-.61.42-1.84.62-2.76.2-.92.62-2.56.82-3.48.3-.93.62-2.15.72-2.67.1-.5.4-1.33.51-1.64.1-.4.3-1.22.51-1.94.2-.72.3-1.33.41-1.33 0-.1.1-.3.2-.51.1-.52.42-1.03.62-1.23 0-.1.1-.2 0-.41 0-.41.3-.62 1.13-.72.82 0 2.25.1 2.45.3 0 .11.21.11.31.11s.2 0 .3.1c.32-.3.32-.2.32.72zm-25.7 32.05c0-.2 0-.3-.21-.3-.1 0-.2 0-.2.1v.3c0 .1 0 .1.2.1.2.1.2.1.2-.2zm5.32-30.3-.1-.21v.2c0 .2 0 .2-.2-.1-.11-.2-.11-.2-.11-.1v.3c0 .1.1.31.2.62.1.5.2.5.31 0-.1-.31-.1-.62-.1-.72zm-.41-1.96h.1c0-.1-.1-.1-.1 0-.1-.1-.1 0 0 0zm1.33.41s0-.3-.1-.3c0 0-.1 0-.1.1 0 .3.1.3.2.2zm.92 6.97c0-.41-.1-.92-.3-1.33-.1-.41-.21-.93-.31-1.13-.1-.72-.2-.61-.41.3 0 .42 0 .52.51 1.65.3.71.51 1.22.51 1.12.1 0 .1-.3 0-.61zm1.74 5.42c-.1-.4-.3-.92-.4-1.12-.21-.41-.31-.51-.31-.1 0 .2 0 .1-.31-.41-.1-.31-.3-.62-.3-.62 0 .1.7 1.95 1.02 2.66.2.41.3.62.3.52 0-.1 0-.1.1-.1.21.2.21 0-.1-.83zm4.2 4.61c0-.2-.72-1.94-.82-2.25-.2-.3-.1-.2.3 1.23.42 1.02.52 1.43.52 1.02zm1.43 14.75c0-.1-.1-.3-.3-.62-.41-.61-.41-.5 0 .62 0 .3.3.2.3 0zm-.2-6.04v.2c0 .1 0 .1 0 0 .1 0 .1-.2 0-.2-.1-.2-.1-.2 0 0zm7.27-11.37c-.1.1-.3.92-.2.92 0 0 .1-.1.1-.3 0-.21.1-.41.1-.62.1-.1.1-.1 0 0z"/><path d="M442.6 40.17c-.21.61-.21 1.02 0 1.43.1.3 0 .82-.32.82-.1 0-.2.1-.4.61-.1.52-.21.62-.52.72-.2.1-.3.1-.4 0-.1-.1-1.24 0-2.98 0-3.17 0-4.91.2-5.01.3-.1.21-.62 2.16-.62 2.36.1.72 0 2.05-.72 5.12-.2.92-.61 2.67-.81 3.8-.72 3.37-1.03 4.5-1.54 6.65-.2 1.12-.62 2.46-.72 2.97-.3 1.53-.82 3.48-1.12 4.3-.1.4-.31 1.02-.41 1.43-.2.72-.31.92-.62.82-.1 0-.2 0-.3.3-.31.62-.62.93-1.03.93-.2 0-.4.1-.4.2-.21.2-.83.2-1.54 0-.31-.1-.62-.3-.72-.4-.2-.21-.41-.72-.41-1.13 0 0-.1-.3-.3-.41-.21-.2-.42-.51-.42-.72-.1-.3-.1-.51 0-.92.1-.3.1-.72.1-.82 0-.2.52-2.35.72-2.76.1-.1.2-.62.3-.93.11-.4.32-1.02.42-1.43a46.69 46.69 0 0 0 1.74-7.68c0-1.33.92-5.43 2.35-10.65.1-.51.2-.82.2-.92 0 0-.7-.1-1.42-.1s-1.64-.1-2.05-.1c-.41 0-1.13 0-1.74-.1-1.74-.1-2.97-.21-3.18-.42 0 0-.3-.1-.71-.1-.93 0-1.13 0-1.13-.4 0-.11 0-.21.1-.32.1 0 .1-.1.1-.4 0-.52.62-3.08.93-3.28.2-.2.4-.2.61 0 0 .1.2.1.3.1.31 0 .31-.3 0-.3-.1 0-.3 0-.4-.1-.2 0 2.15-.11 3.48-.11 2.56.1 7.58 0 8.5-.1.71-.1 1.94-.1 5.83-.1h4.82l.61.3c.3.2.72.41.72.61.2.41.2.41.1.93zm-23.46.1c0-.1 0-.1 0 0h-.2s0 .1.1.1.1 0 .1-.1zm3.07 24.78c0-.1 0-.3.1-.41 0-.2.1-.2.1 0 0 .1-.1.3-.2.41 0 .1 0 .1 0 0zm.2-.82c0-.1 0-.1 0 0 .11 0 .11.1 0 0 0 .2 0 .1 0 0zm5.85-23.86c0-.1-.2-.1-1.64-.2-.92 0-1.74 0-1.85.1-.2 0-.2.1.1.1.1 0 .72 0 1.23.1 1.85 0 2.16 0 2.16-.1zm-1.85 16.7c-.1.1-.2.4-.3.7-.1.32-.21.73-.31.83-.1.2-.72 2.56-.72 2.97 0 .1 0 .1.1.1l.1-.1c0-.1 0-.1.1-.1.11 0 .11-.1 0-.1v-.1s.11-.11.11-.21c0-.1 0-.52.1-.82.2-.72.72-2.36.72-2.87.2-.41.2-.41.1-.3zm4-12.8c-.1 0-.31 0-.31.1s-.3.92-.51 1.94c-.2.92-.52 2.05-.62 2.36-.1.3-.2.71-.2.71v.2c-.1 0-.1.21 0 .21 0 0 .1-.2.2-.51.1-.3.2-.61.3-.72.11-.2.11-.2.11.72 0 .3-.51 2.66-1.43 6.55-.2.72-.2.93 0 1.03.1 0 .2.1.1.71 0 .82 0 .62.41-.71.1-.62.41-1.74.61-2.66.2-.93.41-1.95.52-2.36.2-.92.3-1.74.2-1.54-.1.1-.1.1-.1 0s.1-.71.1-1.22c0-.62.2-1.54.3-2.26.11-.71.21-1.53.32-1.84.2-.72.2-.72 0-.72zm-1.85 5.83c0 .1 0 .2 0 0 0 .1 0 0 0 0 0-.1 0 0 0 0zm11.98-9.01s-.71-.1-1.74-.1h-1.53c.1 0 .2.1.2.1l.2.2c.21.1.21.1-.3.1-.82 0-.92.1 0 .21h2.05s-.1-.1-.2-.1H439s.3-.1.71-.2c.52-.1.82-.21.82-.21z"/><path d="M456.72 72.12c0 .71 0 .71-.2.92-.2.1-.62.1-.62 0s-.5-.52-.61-.52v.31c.1.41 0 .72-.1.41 0-.1-.1-.1-.41-.1-.41 0-.72-.2-.82-.51 0-.1-.1-.2-.3-.2-.32-.21-.52 0-.42.5 0 .41 0 .41-.2.41-.1 0-.2-.1-.31-.2-.1-.1-.2-.2-.3-.2-.21 0-.93-1.13-.93-1.54 0-.1 0-.62-.1-.92a60.3 60.3 0 0 1-.72-6.66v-.61h-1.02c-3.08 0-7.68.4-7.89.61l-1.53 2.46a72.14 72.14 0 0 1-4 6.04c-.3.3-.71.41-1.23.41-.4 0-.5 0-.71-.3-.2-.31-.31-.72-.1-1.24 0-.2.1-.5.1-.71 0-.31.1-.62.3-1.03.1-.3.31-.61.31-.71 0-.1-.1-.2-.2-.31l-.31-.3-.41.91a5.05 5.05 0 0 0-.72 2.46c0 .51 0 .51-.1.3-.2-.3-.51-.81-.51-1.22 0-.41.82-2.05 2.05-4.1.5-.82 1.33-2.25 1.74-3.17.4-.82 1.02-2.05 1.33-2.56.3-.51.61-1.13.72-1.33.1-.2.3-.62.5-.82.21-.3.72-1.23 1.13-2.05a31.6 31.6 0 0 1 1.64-2.76 12.57 12.57 0 0 0 1.74-2.56c.2-.41.1-.62-.1-.2-.1.1-.2.1-.2.1-.2-.21.71-2.26 2.04-4.2.62-.93 1.33-2.05 1.64-2.57.3-.5.82-1.22 1.13-1.53.3-.41.72-1.03 1.02-1.64.51-1.02 1.03-1.64 1.33-1.64.1 0 .2-.1.31-.2.2-.2.2-.2.62-.1.2 0 .61.1.81.1.2 0 .52 0 .72.1.3.1.41.1.51 0 0 0 .2-.1.41-.1.31 0 .41 0 .51.3.1.2.21.72.31 1.13.1.72.1.92.51 6.25.1 1.64.2 4.2.41 5.73.1 2.25.2 3.59.2 7.37 0 3.7 0 4.71.11 4.82 0 .1.1.61.2 1.12.1.52.1 1.13.21 1.44.1.2.2 1.33.3 2.45.11.52.21 1.85.21 2.16zm-15.15-15.06c.1-.3.2-.5.2-.5s-.82 1.42-1.02 1.94c-.3 1.12-.41 1.33-.41 1.43.1.1.2 0 .51-.41.1-.2.3-.72.51-1.02.2-.31.31-.72.31-.82.1-.2 0-.2-.1 0-.31 0-.31 0 0-.62zm9 1.23c0-.51-.1-1.43-.1-2.15-.1-2.76-.71-8.4-.71-8.3-.1 0-.82 1.54-1.02 2.16-.1.3-.2.71-.31.71 0 .2 0 .2.1 0 .2-.3.2-.2.1.2-.2.62-.1.42.41-.4 1.03-1.64.51-.51-.82 2.05-.71 1.33-.82 1.53-2.45 4.5-.72 1.33-1.34 2.36-1.34 2.46h.2c.11 0 .73-.1 1.34-.1.61 0 1.84-.1 2.87-.2.92 0 1.84-.1 1.84-.1s-.1-.42-.1-.83zm.32-11.88v-.71s0-.1-.1-.1-.1 1.22 0 1.43c.1.1.2 0 .1-.62zm2.35-6.55c0-.2 0-.2-.4 0-.42.1-.32.2.1.2.2 0 .3 0 .3-.2zM454.47 55c0-.5-.1-1.63-.3-2.66-.21-1.74-.31-3.58-.52-7.88-.1-2.15-.1-2.46-.2-2.46s-.1.2-.2 1.84c-.11 2.26 0 4.4.3 5.33.1.4.2 1.33.3 2.25.1.82.21 1.84.31 2.25 0 .52.1 1.23.2 1.64 0 .51 0 .72.11.72V55zm.92 16.18c0-.3-.1-.61-.2-.5 0 .1.1.91.2.91v-.4z"/><path d="M482.02 68.12c0 .2-.1.51-.2.72 0 .1-.11.2-.21.2-.1 0-.2.2-.1.31 0 .1 0 .1-.1.3-.11.11-.11.21-.11.31s-.1.62-.3 1.13c-.32 1.03-.52 1.33-1.03 1.23-.41 0-1.74-.2-4.1-.3-1.64-.1-3.28 0-13 .5-3.08.21-3.08.21-3.49 0-.3-.1-.4-.2-.4-.4v-.41s.1-.31.1-.62c0-.51 0-.51-.3-.51-.21 0-.32 0-.32-.3 0-.11 0-.52.1-.72 0-.31.1-.72.1-1.03 0-.3 0-.61.11-.61 0 0 .1-.2.1-.41.31-1.64 1.54-7.68 1.64-8.3.2-.5.41-1.33.62-2.15.1-.4.2-.82.3-.82.1 0 0 .1 0 .2-.1.42-.4 2.06-.4 2.16 0 0 .1-.1.2-.51.1-.31.2-.82.4-1.23.62-1.85 1.13-4.5 1.03-5.02 0-.2 0-1.13.2-2.25.42-2.56.72-4.1 1.64-7.68.21-.72.41-1.54.31-1.64v-.82c.1-.41.1-.72.3-.82l.21-.2.1.2.21.2.3-.2c.21-.2.42-.3.73-.3.61 0 1.94 0 2.45.2.2.1.51.1.62.1.4 0 .5.41.5 1.43 0 .93-.1 1.54-.91 4.3-.2.62-.2.72-.1.82.1.1 0 .93-.31 2.46-.2.92-.72 3.59-1.03 6.04-.1.82-.3 1.85-.4 2.15-.1.62-.62 2.77-.93 4.71-.2 1.34-.3 1.44-.92 4.51l-.4 1.95h1.12c1.94.1 2.46.2 2.35.3 0 .1.1.1.82.1H470.95c.21 0 .31 0 .31.1 0 .11 1.13.21 2.15.11.72-.1.72-.2 0-.2-.2 0-.3 0-.3-.1 0-.11.61-.21 1.33-.42.92-.1 6.76-.1 7.17 0 .61-.1.71.41.4 1.23zm-18.13-14.64v.2c.1 0 .1-.1 0-.2zm1.33 3.89c0-.2.2-1.13.3-1.95.21-.92.42-2.04.52-2.66.3-1.23.72-4.3.72-4.91 0-.41.3-2.46.51-3.49 0-.2.1-.71.1-1.02.1-.82.2-1.94.41-2.97 0-.4.1-.72 0-.82h-.2c-.1 0-.1.1-.1.3 0 .21-.31 1.85-.52 2.36 0 0 0 .1 0 0 .1-.1.2.1.2.72s-.4 2.56-1.32 6.86c-.41 2.05-.93 5.12-1.13 6.35 0 .3-.1 1.02-.3 1.74-.11.72-.21 1.54-.31 1.74 0 .31 0 .72-.1.82 0 .41.2-.3.5-1.74.41-.4.62-1.13.72-1.33zm.2-18.23s0 .1 0 0c.1.1.21 0 .21 0s-.1-.1-.2 0c0-.1 0-.1 0 0zm6.25 28.37c-.4 0-.82 0-.92.1-.4.1.72.1 1.23 0 .3-.1.3-.1-.3-.1zm5.74.3H476.59c.1 0 .3.1.61.1.2 0 .31 0 .2-.1zm2.45 1.13h-.3l.2.1c.31.2.51.2.62 0 .1-.1-.1-.1-.52-.1zm.41.62h-.1.1c0 .1 0 0 0 0z"/></g><g id="logo-icon"><path d="M44.56 119.73a20.79 20.79 0 0 1-14.74-6.14l4.1-4.3c5.01 4.8 10.34 4.91 14.02 4.1 5.53-1.24 10.75-5.33 12.6-9.74 2.45-6.24.1-13.2-2.46-15.77a185.24 185.24 0 0 0-5.43-5.01c-6.14-5.63-9.52-8.7-12.08-16.9-2.66-8.6-1.03-21.6 9.01-29.9 9.32-7.68 23.35-7.37 34.1.51L80.1 41.4c-8.6-6.35-19.56-6.66-26.83-.72-7.89 6.45-9.22 16.69-7.17 23.45 2.05 6.65 4.5 8.9 10.44 14.23 1.64 1.44 3.38 3.18 5.53 5.12 4.4 4.3 7.17 14.03 3.9 22.22-2.57 6.35-9.32 11.78-16.8 13.42-1.54.4-3.07.61-4.6.61z"/><path fill="#637d96" d="m68.63 123.72-5.64-1.84c6.35-19.04 10.76-32.46 13.62-40.45 3.69-10.03 4.82-11.98 7.27-12.28 5.53-.62 6.56 7.98 8.5 23.65.92 7.58 2.67 21.4 4.82 24.27 1.43-1.03 3.99-5.12 4.6-8.91.62-3.9 1.03-7.68 1.44-10.96 1.23-9.62 2.05-16.69 5.02-20.17.61-.72 1.43-1.54 2.76-2.76 4.3-4.2 13.41-12.9 13.82-20.59.41-6.65-3.17-14.44-10.85-16.59-8.9-2.45-17.51.93-19.15 1.95l-3.07-5.12c2.76-1.64 12.9-5.53 23.76-2.56 10.75 2.97 15.77 13.62 15.25 22.63-.61 10.04-10.34 19.46-15.66 24.58-1.03 1.02-1.95 1.84-2.36 2.35-1.84 2.25-2.76 9.42-3.69 17.1-.4 3.38-.92 7.17-1.53 11.16-.62 4.2-3.48 10.24-7.07 12.8-1.84 1.34-3.38 1.44-4.4 1.23-5.94-1.02-7.48-11.36-9.73-29.6a228.27 228.27 0 0 0-2.25-15.35c-2.77 7.17-8.3 23.86-15.46 45.46z"/></g></svg>